<svg id="SvgjsSvg1039" width="256" height="256" xmlns="http://www.w3.org/2000/svg" version="1.1"
    xmlns:xlink="http://www.w3.org/1999/xlink" xmlns:svgjs="http://svgjs.com/svgjs">
    <defs id="SvgjsDefs1040"></defs>
    <g id="SvgjsG1041"><svg xmlns="http://www.w3.org/2000/svg" viewBox="0 0 66 66" width="256" height="256">
            <path fill="#eae4dd" d="m57.704 25.415 6.181 15.682H2.125l6.181-15.682z" class="colorEAE4DD svgShape">
            </path>
            <path fill="#fffbf4"
                d="m53.038 25.415 1.906 4.294c1.078 2.428-.7 5.161-3.355 5.161H14.42c-2.656 0-4.433-2.733-3.355-5.16l1.906-4.295h40.066z"
                class="colorFFFBF4 svgShape"></path>
            <path fill="#4f6555" d="M59.66 35.989V56.17H6.34V35.99a219.055 219.055 0 0 1 53.32 0z"
                class="color4F6555 svgShape"></path>
            <path fill="#607264"
                d="M57.236 35.708v5.543a9.714 9.714 0 0 1-9.733 9.733H18.507a9.714 9.714 0 0 1-9.733-9.733v-5.543a219.543 219.543 0 0 1 48.46 0z"
                class="color607264 svgShape"></path>
            <path fill="#a7aa93"
                d="M6.34 35.636v23.256a.766.766 0 0 1-.767.767H1.766A.766.766 0 0 1 1 58.892V35.636c0-.423.343-.766.766-.766h3.807c.423 0 .766.343.766.766z"
                class="colorA7AA93 svgShape"></path>
            <path fill="#86967d"
                d="M1.009 58.112v.792c0 .408.357.766.766.766h3.806a.769.769 0 0 0 .767-.766V35.63a.769.769 0 0 0-.767-.766h-.766v19.44a3.807 3.807 0 0 1-3.806 3.807z"
                class="color86967D svgShape"></path>
            <path fill="#a7aa93"
                d="M65 35.636v23.256a.766.766 0 0 1-.766.767h-3.807a.766.766 0 0 1-.766-.767V35.636c0-.423.343-.766.766-.766h3.807c.423 0 .766.343.766.766z"
                class="colorA7AA93 svgShape"></path>
            <path fill="#86967d"
                d="M65 58.112v.792a.786.786 0 0 1-.766.766h-3.807a.769.769 0 0 1-.766-.766V35.63c0-.409.332-.766.766-.766h.767v19.44A3.807 3.807 0 0 0 65 58.112z"
                class="color86967D svgShape"></path>
            <path fill="#394a39"
                d="M57.704 25.415V11.44a5.11 5.11 0 0 0-5.11-5.11H13.416a5.11 5.11 0 0 0-5.109 5.11v13.975h49.398z"
                class="color394A39 svgShape"></path>
            <path fill="#293b30"
                d="M57.695 11.44v13.973H50.9V11.439c0-2.81-2.3-5.11-5.11-5.11h6.796c2.836 0 5.11 2.3 5.11 5.11z"
                class="color293B30 svgShape"></path>
            <path fill="#4f6555"
                d="M14.05 8.358v8.698a3.921 3.921 0 0 0 3.92 3.921h30.07a3.921 3.921 0 0 0 3.92-3.92V8.357H14.05z"
                class="color4F6555 svgShape"></path>
            <path fill="#607264" d="M14.049 6.331h37.912v2.027H14.049z" class="color607264 svgShape"></path>
            <path fill="#ffd347"
                d="M28.684 24.209c0 2.302-.508 4.168-1.142 4.168a.418.418 0 0 1-.276-.121c-.331-.296-.839-.245-1.227-.03-1.155.639-2.591 1.012-4.152 1.012-1.564 0-3.003-.375-4.16-1.012-.388-.214-.892-.26-1.225.034a.408.408 0 0 1-.269.117c-.634 0-1.15-1.867-1.15-4.168 0-2.31.516-4.178 1.15-4.178a.42.42 0 0 1 .276.121c.33.293.834.243 1.22.03 1.156-.637 2.595-1.012 4.158-1.012 1.564 0 3.002.375 4.159 1.012.386.213.89.263 1.22-.03a.42.42 0 0 1 .276-.12c.634 0 1.142 1.866 1.142 4.177z"
                class="colorFFD347 svgShape"></path>
            <path fill="#ffc447"
                d="M28.358 27.118c-.209.779-.49 1.26-.816 1.26a.43.43 0 0 1-.272-.119c-.335-.299-.843-.244-1.232-.036-1.151.644-2.592 1.015-4.15 1.015-1.568 0-3-.371-4.16-1.015-.39-.208-.897-.254-1.223.036a.403.403 0 0 1-.272.118c-.634 0-1.15-1.866-1.15-4.168 0-1.396.19-2.628.48-3.39.897 2.819 3.66 5.302 7.34 6.226 1.902.48 3.787.48 5.455.073z"
                class="colorFFC447 svgShape"></path>
            <path fill="#fff25d"
                d="M25.48 20.746h-2.202a.484.484 0 0 0-.336.83l2.202 2.132c.307.297.82.08.82-.347v-2.132a.484.484 0 0 0-.484-.483z"
                class="colorFFF25D svgShape"></path>
            <path fill="#ffd347"
                d="M50.928 24.209c0 2.302-.508 4.168-1.142 4.168a.418.418 0 0 1-.276-.121c-.331-.296-.839-.245-1.227-.03-1.155.639-2.591 1.012-4.152 1.012-1.564 0-3.003-.375-4.16-1.012-.388-.214-.892-.26-1.225.034a.408.408 0 0 1-.269.117c-.634 0-1.15-1.867-1.15-4.168 0-2.31.516-4.178 1.15-4.178a.42.42 0 0 1 .276.121c.33.293.834.243 1.22.03 1.156-.637 2.595-1.012 4.158-1.012 1.564 0 3.002.375 4.159 1.012.386.213.89.263 1.22-.03a.42.42 0 0 1 .276-.12c.634 0 1.142 1.866 1.142 4.177z"
                class="colorFFD347 svgShape"></path>
            <path fill="#ffc447"
                d="M50.602 27.118c-.209.779-.49 1.26-.816 1.26a.43.43 0 0 1-.272-.119c-.335-.299-.843-.244-1.232-.036-1.151.644-2.592 1.015-4.15 1.015-1.568 0-3-.371-4.16-1.015-.39-.208-.897-.254-1.223.036a.403.403 0 0 1-.272.118c-.634 0-1.15-1.866-1.15-4.168 0-1.396.19-2.628.48-3.39.897 2.819 3.66 5.302 7.34 6.226 1.903.48 3.787.48 5.455.073z"
                class="colorFFC447 svgShape"></path>
            <path fill="#fff25d"
                d="M47.724 20.746h-2.202a.483.483 0 0 0-.336.83l2.202 2.132c.307.297.82.08.82-.347v-2.132a.483.483 0 0 0-.484-.483z"
                class="colorFFF25D svgShape"></path>
            <path fill="#607264"
                d="M10.563 15.806v6.054c0 .307-.256.562-.562.562s-.537-.255-.537-.562v-6.054c0-.306.23-.562.537-.562s.562.255.562.562zm0-4.368v2.324c0 .307-.256.537-.562.537s-.537-.23-.537-.537v-2.325c0-.306.23-.561.537-.561s.562.255.562.562z"
                class="color607264 svgShape"></path>
            <path fill="#86967d"
                d="M47.05 38.926c-.035 0-.072-.002-.11-.006a126.64 126.64 0 0 0-15.174-.766h-.01a1 1 0 0 1-.01-2c5.112-.054 10.307.211 15.414.778a1.001 1.001 0 0 1-.11 1.994zM18.96 38.926a1 1 0 0 1-.11-1.994 129.44 129.44 0 0 1 6.801-.573c.54-.029 1.025.39 1.056.94a.998.998 0 0 1-.94 1.057c-2.224.128-4.477.318-6.696.564a1.096 1.096 0 0 1-.112.006z"
                class="color86967D svgShape"></path>
        </svg></g>
</svg>