<?xml version="1.0" encoding="utf-8"?>
<!-- Generator: Adobe Illustrator 19.2.1, SVG Export Plug-In . SVG Version: 6.00 Build 0)  -->
<svg version="1.1" id="layer" xmlns="http://www.w3.org/2000/svg" xmlns:xlink="http://www.w3.org/1999/xlink" x="0px" y="0px"
	 viewBox="0 0 652 652" style="enable-background:new 0 0 652 652;" xml:space="preserve">
<style type="text/css">
	.st0{fill:#747172;}
	.st1{fill-rule:evenodd;clip-rule:evenodd;fill:#747172;}
	.st2{fill-rule:evenodd;clip-rule:evenodd;fill:#D4161D;}
</style>
<path class="st0" d="M-56.1,571.1V541h18.4v5.2H-49v7h10.5v5.2H-49v7.6h11.7v5.2H-56.1z M-11.5,563.5c-1.7,1.4-3.8,2.3-6,2.5
	c-4.2,0-6.6-3.6-6.6-10.2c0-6.6,2.8-9.6,6.9-9.6c1.9,0.1,3.8,0.7,5.4,1.9v-5.9c-2.1-1.1-4.5-1.6-6.9-1.6c-7.4,0-12.5,6.6-12.5,15.8
	c0,9.2,4.9,15.1,12.5,15.1c2.6,0.2,5.2-0.6,7.2-2.2V563.5z M7.2,540.5c-6.3,0-12.5,4.1-12.5,15.2s6.9,15.7,12.5,15.7
	c5.6,0,12.5-4.3,12.5-15.5C19.8,544.7,13.1,540.5,7.2,540.5 M7.2,565.5c-3.9,0-5-3.6-5-9.5c0-5.9,0.8-9.5,5-9.5
	c4.3,0,5.1,4.4,5.1,9.5C12.3,563.2,10.6,565.5,7.2,565.5 M49.1,571.1V541h-6.8v17l-8.7-17H27v30.1h6.7v-17.8h0.1l9,17.8H49.1z
	 M68.8,540c-6.2,0-12.4,3.4-12.4,15.2c0,11.8,6.8,16.1,12.4,16.1c5.6,0,12.5-4.3,12.5-15.5c0-11.2-6.6-15.5-12.5-15.5V540z
	 M68.8,565.5c-4,0-5.1-3.6-5.1-9.5c0-5.9,0.8-9.5,5.1-9.5c4.3,0,5.2,4.4,5.2,9.5C74,563.2,72.2,565.5,68.8,565.5 M115.8,571.1V541
	h-6.5l-7.2,12.4L94.9,541h-6.5v30.1h6.6v-19.2h0.1l6.3,11.3h1.4l6.1-11.3h0.1v19.2H115.8z M137.8,571.1v-13.8l7.9-16.3h-7.6l-4,9.2
	l-4.7-9.2h-7.8l8.9,16.3v13.8H137.8z M241.2,571.1v-5.2h-11.8v-7.6H240v-5.2h-10.5v-7h11.3V541h-18.4v30.1H241.2z M272.5,571.1
	l-9.2-16.1l8.4-14h-7.8l-4.6,8.2l-4.6-8.2H247l8.3,14l-9.3,16.1h7.8l5.5-9.9l5.5,9.9H272.5z M297.6,563.3c-1.7,1.4-3.8,2.3-6,2.5
	c-4.5,0-6.9-3.4-6.9-10c0-6.6,2.8-9.6,6.9-9.6c2,0.1,3.9,0.8,5.5,1.9v-5.9c-2.2-1.1-4.7-1.7-7.2-1.6c-7.5,0-12.5,6.6-12.5,15.8
	c0,9.2,5,15.1,12.5,15.1c2.6,0.2,5.3-0.6,7.4-2.2L297.6,563.3z M323.7,571.1v-5.2h-11.6v-7.6h10.4v-5.2h-10.4v-7h11.2V541h-18.4
	v30.1H323.7z M349.5,571.1v-5.4h-11.6V541h-7.1v30.1H349.5z M373.9,571.1v-5.4h-11.6V541h-7.1v30.1H373.9z M398.4,571.1v-5.2h-11.6
	v-7.6h10.4v-5.2h-10.4v-7h11.1V541h-18.3v30.1H398.4z M427.7,571.1V541h-6.8v17h-0.1l-8.4-17h-6.8v30.1h6.9v-17.8l8.9,17.8H427.7z
	 M455,563.3c-1.7,1.4-3.8,2.3-6,2.5c-4.5,0-6.9-3.4-6.9-10s2.7-9.6,6.9-9.6c2,0.1,3.9,0.7,5.5,1.9v-5.9c-2.1-1.1-4.5-1.6-6.9-1.6
	c-7.4,0-12.5,6.6-12.5,15.8c0,9.2,4.9,15.1,12.5,15.1c2.7,0.2,5.3-0.6,7.4-2.2V563.3z M481.4,571.1v-5.2h-11.6v-7.6h10.4v-5.2h-10.4
	v-7H481V541h-18.4v30.1H481.4z M577.9,571.1v-5.2l-11.5,0v-7.6h10.4v-5.2h-10.4v-7l11.2,0V541h-18.3v30.1H577.9z M597.2,571.1v-24.9
	h7.1V541h-21.6v5.2h7.4v24.9H597.2z M632.8,571.1V541h-7.3v12.3h-7.8V541h-7.2v30.1h7.2v-12.6h7.8v12.6H632.8z M641.3,571.1h7.2V541
	h-7.2V571.1z M676,563.3c-1.7,1.4-3.8,2.3-6,2.5c-4.6,0-6.9-3.4-6.9-10s2.7-9.6,6.9-9.6c1.9,0.1,3.8,0.7,5.4,1.9v-5.9
	c-2.1-1.1-4.5-1.6-6.9-1.6c-7.5,0-12.4,6.6-12.4,15.8c0,9.2,5,15.1,12.4,15.1c2.7,0.2,5.3-0.6,7.4-2.2L676,563.3z M683.1,569.1
	c2.3,1.5,4.9,2.3,7.6,2.3c0,0,0,0,0.1,0c4.8,0.1,8.7-3.6,8.8-8.4c0-7.2-10.3-11.5-10.3-15.1c0-1.2,1.3-2,2.9-2
	c2.2,0.2,4.3,0.9,6.1,2.1v-5.6c-2.1-1.2-4.4-1.9-6.9-1.9c-4.7-0.4-8.8,3-9.2,7.7c0,7.3,9.9,10.6,9.9,15.1c0,0,0,0,0,0
	c-0.1,1.5-1.4,2.6-2.9,2.5c-2.6-0.2-5-1.4-6.9-3.2L683.1,569.1z M183.9,566.7l11.8-11.2l-11.8-11.2l-11.7,11.2L183.9,566.7z
	 M519.8,566.7l11.8-11.2l-11.8-11.2l-11.6,11.2L519.8,566.7z"/>
<path class="st1" d="M471.9,480.7h-4.7v-5.9h4.1c3.2,0,4.7,1,4.7,3C476,479.8,474.9,480.7,471.9,480.7 M474.6,483.5L474.6,483.5
	c3.3,0.1,6-2.5,6.1-5.8c0-3.4-2.3-6-6.9-6h-11.3v21.4h4.6v-8.7h0.7c1.3-0.2,2.7,0.2,3.8,1c1.1,1.3,2.1,2.7,3,4.3l1.9,3.6h5.6
	l-2.6-4.4c-2.3-3.8-2.9-4.3-4.9-5.1V483.5z M472.1,498.5c9-0.5,15.9-8.1,15.5-17.1c-0.5-9-8.1-15.9-17.1-15.4
	c-8.6,0.4-15.4,7.5-15.5,16.2c0.2,9.2,7.8,16.5,17,16.3l0,0L472.1,498.5z M472.1,461.9c-11.4,0.5-20.2,10-19.8,21.4
	c0.5,11.4,10,20.2,21.4,19.8c11.2-0.4,20-9.7,19.8-20.9c-0.2-11.4-9.6-20.5-20.9-20.3C472.5,461.9,472.3,461.9,472.1,461.9z"/>
<path class="st2" d="M284.6,446.9c3.6-5.7,5.9-12.2,6.9-18.9c-8.4-11.4-16.2-23.2-23.3-35.4c0,0,5,40.7,6.9,53.9L284.6,446.9z
	 M265.2,408.3l3.8,38.6h-18.8c7.8-11.6,12.8-24.8,14.7-38.6 M299,411.4h25c-3.1-8.5-7.6-16.5-13.3-23.6l-13.8,5.2
	c1.3,6,1.9,12.2,1.9,18.4H299z M384.1,191.5l27.5,10.7c5.1-7,10.9-13.5,17.4-19.3l-26-10.2C395.6,177.9,389.2,184.2,384.1,191.5
	 M256.9,461.4c1,1.7,1,3.9,0,5.6h126.4c-1.7-2.1-1.7-5.2,0-7.3c3.4-4.1,5.7-1.9,7.5-6.9L246.3,454c2.3,3.8,8.1,4.8,10.4,7.8
	L256.9,461.4z M424.6,487.6H219V373h205.5V487.6z M529.8,317.5c-6.9,0-13.8-14.1-13.8-37.4c0.1-13,3-25.8,8.5-37.5
	c6.3,8.6,17.9,11.5,27.5,6.9c0.5,5.1,0.7,10.2,0.6,15.3c0,23.6-11.8,53-22.6,53 M532.7,229.3c1.2-2.6,6.1-3.9,11-2.9
	c4.9,1,7.7,4.3,6.5,6.9c-1.2,2.6-6.2,3.9-11.1,2.8C534.1,235,531.4,232,532.7,229.3 M253.4,228.5c6.9,0-4.3,37.3-23.1,43.6
	C231.8,245.6,246,227.6,253.4,228.5 M568.6,224.8c15.4-6.9,43.3,16.9,43.3,65.9c0,69.2-67.4,133.3-172,160.7v51.4l-236.6,0v-53.6
	C98.8,418.1,56.3,355.2,56.3,350h60.3c24.5,23.7,53.9,41.8,86.1,53.1v-45.1l237.4,0v58.3c103.2-24.6,156.6-85.3,156.6-133.5
	c0-16.1-6.1-42.4-21.4-46.5c3.3,9.1,5,18.7,4.8,28.4c0,34-23.1,67.3-51.1,67.3c-11,0.6-21.7-3.7-29.1-11.8c-1.9,2.6-4.3,4.9-6.9,6.9
	c-4.8,3.3-10.4,5.2-16.2,5.4c-16.3,0-36-26-36-52.8c0-7.4,0.6-14.7,1.9-22c-6.6,9.4-10.4,20.4-11.1,31.9v11.7c1,6,2,11.8,3,16.6
	c1.2,6.9,2.3,11.2,2.3,11.2h-20.6c0,0-2.2-3.6-4.6-9.5c-0.3,0.5-0.6,1-0.9,1.4c-3.9,6.7-10.8,11-18.6,11.4
	c-9-1.2-17.1-6.2-22.2-13.7c-1.6,3.4-4,6.3-6.9,8.7c-4.9,3.3-10.7,5-16.6,4.9c-16.4,0-35.3-21.6-35.3-48.1
	c-0.1-13.5,1.7-27.1,5.4-40.1c-4.3-2.6-8.1-5.9-11.4-9.7c0.1,4.6-0.1,9.2-0.8,13.7c-1.1,26.6-12.6,51.7-32,70
	c-7.8,7.7-17.9,12.6-28.7,14.1c-10.7,0.4-21.1-3.9-28.3-11.8c-1.3,2.6-3.3,4.8-5.7,6.4c-4,2.8-8.9,4.2-13.8,4.1
	c-18.8,0-37.5-25-37.5-51.8c0-7.1,0.4-14.3,1.2-21.3c-6.4,9.2-10.2,20-10.7,31.2c-0.1,4.1,0.1,8.3,0.6,12.4c1.4,9.3,3.4,18.5,6,27.5
	h-22.4c-9-15.7-13.9-33.4-14.4-51.5c0-10.1,0.9-20.1,2.6-30c-10.5,11.5-17,26.1-18.5,41.6c-0.2,4.6,0.1,9.2,0.8,13.7
	c1.3,9,3.2,17.8,5.8,26.5H87.9c-9.1-15.8-14.1-33.6-14.6-51.8c0-7.9,0.5-15.8,1.7-23.6c-13.2-0.4-23.7-11.3-23.5-24.5v-1.5
	c0.2-62.1,105.6-156.5,277.9-156.5c135.1,0,233.9,50.5,275.1,116.3h-60.9c-39.9-49-140.9-77.6-214.5-77.6
	c-205.9,0-259.4,98.6-259.4,118c-0.4,5.1,3.1,9.7,8.1,10.7c2.3-10,5.7-19.6,10.1-28.8l29.2,10.2c-3.6,8-6.7,16.2-9.4,24.5
	c9.7-10.3,18-21.6,25-33.9v0.8c0.3-0.6,0.6-1.1,0.9-1.7l29.2,10.2c0,0-5,11-9.4,24.5c9.7-10.2,18.1-21.6,25-33.9l28.1,10.5
	c-13.3,19.7-21.1,42.6-22.6,66.4c0,18.9,6.9,30.1,13.8,30.1c2.4,0.1,4.8-0.6,6.9-1.9l1.9-1.5l2.1-2.7c-5.5-11.4-8.2-24-7.8-36.8
	c0-31.1,20.1-63.8,51.9-63.8c10.7-1.5,20.6,5.7,22.4,16.3c0.2,1.6,0.2,3.2,0,4.7c-2.1,25.3-19.8,46.5-44.4,53
	c0.9,20.6,8.7,33.9,16.7,33.9c7.4-0.2,14.2-3.9,18.4-10c12.5-16.5,18.8-36.8,17.6-57.5c-0.3-11.1-2-22.2-5.2-32.9l27.5-14.1
	c0,2.7,11.8,19.4,21.3,18.7c0.8-1.2,1.7-2.3,2.6-3.3l23.1,10.1c-10.8,18.5-16.7,39.5-17.1,61c0,16.9,11.1,28.1,16.9,28.1
	c1.8,0.1,3.6-0.3,5.2-1.2c2.8-2.1,4.9-5,6-8.2c-5.2-9.4-8.1-19.9-8.2-30.6c0-47.2,20.6-68.1,20.6-68.1l28.1,10.5
	c-13.2,19.6-21,42.3-22.7,65.8c0,18.9,7.9,31.2,13.7,31.2c1.8,0,3.5-0.4,5.2-1.2c1.2-0.7,2.4-1.5,3.5-2.4l0.8-0.5
	c1.5-1.5,2.5-3.3,3.1-5.4c-3.9-10.2-6.1-20.9-6.7-31.8c-0.3-23.3,4.7-46.3,14.7-67.3l29.2,10.2c-3.7,8.3-6.9,16.8-9.6,25.4
	c10-10.4,18.7-22.1,25.7-34.7l28.1,10.4c-13.2,19.8-20.9,42.8-22.3,66.6c0,18.9,7.9,30.1,13.8,30.1c3.4-0.1,6.7-1.3,9.3-3.6
	c1.4-1.6,2.5-3.4,3.4-5.4c-4.8-10.8-7.1-22.5-6.9-34.3c0-31.2,22.3-63.8,54-63.8c11.1-0.4,21.7,4.6,28.5,13.4 M376.8,446.9l21.9-6.9
	c-14.2-9.2-35.1-43.5-35.1-43.5s18.2,39.3,13.8,50.4 M290.3,446.9c5.4-9,8.2-19.4,8-29.9H325c3.4,9.6,4.5,19.8,3.4,29.9
	c-12.4-2.3-25.1-2.3-37.5,0H290.3z M370.3,446.9c1.1-8.5,0-17.2-3.3-25.2h-27.9c0.1,8.9-1.9,17.8-5.8,25.8c12.4-2.5,25.1-2.5,37.5,0
	L370.3,446.9z M338.2,415.2l25.9,0.6c-3.6-8.4-8.2-16.3-13.8-23.6l-13.8,4.9C338.1,403,338.6,409.1,338.2,415.2"/>
</svg>
