<svg id="Layer_1" data-name="Layer 1" xmlns="http://www.w3.org/2000/svg" viewBox="0 0 379.02 114.72"><defs><style>.cls-1,.cls-3{fill:#231f20;}.cls-1,.cls-2{fill-rule:evenodd;}.cls-2{fill:#fff;}</style></defs><path class="cls-1" d="M199.44,140.25l.72,2.7a.83.83,0,0,1-.81,1h-17a.83.83,0,0,0-.83.83V160.1a.83.83,0,0,0,.83.83h14.23a.83.83,0,0,1,.83.83v2.57a.84.84,0,0,1-.83.84H182.31a.83.83,0,0,0-.83.82l-.14,16.73a.84.84,0,0,0,.83.84h18.51a.83.83,0,0,1,.77,1.14l-1.08,2.7a.85.85,0,0,1-.78.53H177.5a.84.84,0,0,1-.83-.84V140.46a.83.83,0,0,1,.83-.83h21.14A.81.81,0,0,1,199.44,140.25ZM131.6,187.1l.12-34.24a.84.84,0,0,1,1.46-.55l29.91,34a.83.83,0,0,0,1.45-.54l.17-45.14a.83.83,0,0,0-.83-.83H161a.83.83,0,0,0-.83.83v34a.83.83,0,0,1-1.45.56l-30.07-33.88a.84.84,0,0,0-1.46.56v45.27a.84.84,0,0,0,.83.84h2.77A.83.83,0,0,0,131.6,187.1Zm137.13-70.58-23.41,59.41a.84.84,0,0,1-1.55,0l-6.41-15.68a.84.84,0,0,1,0-.64l8-18.69a.83.83,0,0,0-.76-1.16h-2.55a.83.83,0,0,0-.77.51l-5.43,13.27a.84.84,0,0,1-1.54,0l-5.45-13.27a.83.83,0,0,0-.77-.51h-2.9a.83.83,0,0,0-.76,1.15l8.25,19.25a.84.84,0,0,1,0,.66L226.16,176a.83.83,0,0,1-1.53,0l-14.75-35.75a.84.84,0,0,0-.77-.51h-2.65a.83.83,0,0,0-.77,1.14l18.65,45.24a.84.84,0,0,0,1.54,0l8.19-19.59a.83.83,0,0,1,1.53,0l8.18,19.57a.83.83,0,0,0,1.54,0l28-69a.83.83,0,0,0-.77-1.14h-3A.84.84,0,0,0,268.73,116.52Z" transform="translate(-127.17 -116)"/><path class="cls-1" d="M293.77,116l-39.44,96.65H497.12a9.09,9.09,0,0,0,9.08-9.08V125.08a9.08,9.08,0,0,0-9.08-9.08Z" transform="translate(-127.17 -116)"/><path class="cls-2" d="M367.38,139.67h-2.84a.83.83,0,0,0-.83.83v46.65a.8.8,0,0,0,.8.81l2.87,0a.81.81,0,0,0,.83-.82V140.5A.83.83,0,0,0,367.38,139.67Z" transform="translate(-127.17 -116)"/><path class="cls-2" d="M332.1,141.51a.83.83,0,0,0-1.54,0l-8.16,19.56a.83.83,0,0,1-1.53,0l-8.31-19.58a.83.83,0,0,0-1.53,0l-28.11,69.22h0l-.16.4a2.66,2.66,0,0,1-2.43,1.52h8.74c-2.4-.13-1.48-2.49-1.48-2.49l.16-.45L311,151.55a.83.83,0,0,1,1.54,0l6.55,15.67a.82.82,0,0,1,0,.65l-8.08,19a.83.83,0,0,0,.76,1.15h2.41a.83.83,0,0,0,.77-.51l5.62-13.6a.83.83,0,0,1,1.53,0l5.76,13.61a.84.84,0,0,0,.77.5h2.65a.83.83,0,0,0,.76-1.16l-8.31-19.38a.86.86,0,0,1,0-.65l6.41-15.28a.83.83,0,0,1,1.53,0l14.79,35.93a.83.83,0,0,0,.76.51l2.74,0a.83.83,0,0,0,.77-1.15Z" transform="translate(-127.17 -116)"/><path class="cls-2" d="M396.23,163.71a.82.82,0,0,1,0-1.07L415,141a.83.83,0,0,0-.63-1.37h-3.28a.8.8,0,0,0-.62.28l-18.29,21.12a.83.83,0,0,1-1.46-.55v-20a.83.83,0,0,0-.83-.83h-3a.83.83,0,0,0-.83.83v46.65a.83.83,0,0,0,.83.83h3a.83.83,0,0,0,.83-.83V165.94a.84.84,0,0,1,1.48-.53l18.12,22.27a.85.85,0,0,0,.65.3h3.4a.82.82,0,0,0,.64-1.35Z" transform="translate(-127.17 -116)"/><path class="cls-2" d="M471.08,186.78,448.2,140.71a.84.84,0,0,0-1.49,0l-23.25,46.08a.83.83,0,0,0,.74,1.2h3.08a.83.83,0,0,0,.75-.47l9.48-19.78a.83.83,0,0,1,.75-.47h17.82a.84.84,0,0,1,.75.46l9.62,19.8a.83.83,0,0,0,.74.46h3.15A.83.83,0,0,0,471.08,186.78ZM453.6,163.32H441.05a.83.83,0,0,1-.75-1.19l6.43-13.5a.65.65,0,0,1,1.18,0l6.44,13.5A.83.83,0,0,1,453.6,163.32Z" transform="translate(-127.17 -116)"/><path class="cls-3" d="M260,230.63h-1.92l-2.1-5.18-1,5.18h-2.31l2-10h1.92l2.12,5.2,1-5.2H262Z" transform="translate(-127.17 -116)"/><path class="cls-3" d="M269.86,222.7h-4.08l-.38,1.88h3.53l-.41,2H265l-.39,2h4.17l-.41,2h-6.49l2-10h6.4Z" transform="translate(-127.17 -116)"/><path class="cls-3" d="M278.5,230.63h-1.88l-.52-5.06-2.59,5.06h-1.88l-.66-10h2.39l.19,5.41,2.62-5.41h1.64l.48,5.41,2.27-5.41H283Z" transform="translate(-127.17 -116)"/><path class="cls-3" d="M286.67,227.52h-4.34l.4-2.05h4.35Z" transform="translate(-127.17 -116)"/><path class="cls-3" d="M293,230.63l-.14-1.57h-2.94l-.77,1.57H286.7l5.4-10h1.8l1.46,10Zm-.63-6.4-1.5,2.94h1.81Z" transform="translate(-127.17 -116)"/><path class="cls-3" d="M302,223.79c0-.7-.34-1.18-1-1.18a1.32,1.32,0,0,0-1,.44,5.59,5.59,0,0,0-.9,2.59,10.94,10.94,0,0,0-.27,2,1,1,0,0,0,1,1.06,1.77,1.77,0,0,0,1.63-1.6l0-.21H300l.37-1.93h3.7l-.25,1.34a6.06,6.06,0,0,1-1.45,3.3,3.73,3.73,0,0,1-2.81,1.15,2.88,2.88,0,0,1-3.17-2.92,11.92,11.92,0,0,1,.27-2.16c.46-2.33.68-3,1.52-3.91a4,4,0,0,1,2.91-1.16,3,3,0,0,1,3.15,3.22Z" transform="translate(-127.17 -116)"/><path class="cls-3" d="M312.58,222.7H308.5l-.38,1.88h3.53l-.41,2h-3.52l-.39,2h4.16l-.4,2H304.6l2-10H313Z" transform="translate(-127.17 -116)"/><path class="cls-3" d="M322,230.63h-6.35l2-10h2.31l-1.57,7.94h4Z" transform="translate(-127.17 -116)"/><path class="cls-3" d="M328.75,230.63l-.14-1.57h-2.94l-.77,1.57h-2.46l5.4-10h1.8l1.46,10Zm-.63-6.4-1.5,2.94h1.81Z" transform="translate(-127.17 -116)"/><path class="cls-3" d="M340.84,230.63h-2.31l1-4.92-1.77,2.47h-1.47l-.91-2.47-1,4.92h-2.31l2-10h2.16l1.27,4.4,3.09-4.4h2.27Z" transform="translate(-127.17 -116)"/><path class="cls-3" d="M345,230.63h-2.31l2-10H347Z" transform="translate(-127.17 -116)"/><path class="cls-3" d="M354.34,230.63h-1.93l-2.1-5.18-1.05,5.18H347l2-10h1.93l2.11,5.2,1-5.2h2.32Z" transform="translate(-127.17 -116)"/><path class="cls-3" d="M361.6,230.63l-.13-1.57h-2.94l-.77,1.57h-2.47l5.41-10h1.8l1.46,10Zm-.62-6.4-1.51,2.94h1.81Z" transform="translate(-127.17 -116)"/><path class="cls-3" d="M372,222.71h-2.27l-1.57,7.92H365.8l1.57-7.92H365l.42-2.06h6.95Z" transform="translate(-127.17 -116)"/><path class="cls-3" d="M379.74,222.7h-4.08l-.38,1.88h3.53l-.41,2h-3.52l-.39,2h4.16l-.4,2h-6.49l2-10h6.39Z" transform="translate(-127.17 -116)"/><path class="cls-3" d="M386.24,223.25a1.86,1.86,0,0,0-1.61-.65c-.95,0-1.49.59-1.49,1.09s.44.65.85.76l.75.2c1.74.45,2.31,1.26,2.31,2.69,0,2.41-2,3.38-4.11,3.38a4.09,4.09,0,0,1-3.51-1.38l1.67-1.47a2.57,2.57,0,0,0,2,.79c.91,0,1.57-.51,1.57-1.08s-.29-.72-.83-.86l-.75-.19c-2-.52-2.32-1.69-2.32-2.46,0-2.19,1.69-3.5,4.07-3.5a3.69,3.69,0,0,1,3,1.24Z" transform="translate(-127.17 -116)"/><path class="cls-3" d="M398.64,222.7h-4.08l-.39,2h3.48l-.4,2h-3.5l-.78,3.94h-2.31l2-10H399Z" transform="translate(-127.17 -116)"/><path class="cls-3" d="M404.75,226.55l1.33,4.08h-2.54l-1-3.78h-.88l-.77,3.78h-2.31l2-10h3.53a2.61,2.61,0,0,1,2.84,2.89A3.31,3.31,0,0,1,404.75,226.55Zm-1.08-3.82h-1.23l-.44,2.18h1.21a1.25,1.25,0,0,0,1.36-1.25A.83.83,0,0,0,403.67,222.73Z" transform="translate(-127.17 -116)"/><path class="cls-3" d="M415,225.64c-.35,1.76-.6,3-1.49,3.91a3.79,3.79,0,0,1-2.85,1.17,2.88,2.88,0,0,1-3.12-2.92,12.17,12.17,0,0,1,.26-2.16c.35-1.75.6-3,1.49-3.91a3.83,3.83,0,0,1,2.86-1.16,2.88,2.88,0,0,1,3.12,2.91A11.5,11.5,0,0,1,415,225.64Zm-3-3a1.26,1.26,0,0,0-1,.47,5.49,5.49,0,0,0-.85,2.56,12.74,12.74,0,0,0-.27,2,1,1,0,0,0,1,1.06,1.31,1.31,0,0,0,1-.46c.29-.32.51-.88.85-2.57a12.57,12.57,0,0,0,.26-2A1,1,0,0,0,412,222.61Z" transform="translate(-127.17 -116)"/><path class="cls-3" d="M424.42,230.63h-2.31l1-4.92-1.77,2.47h-1.47l-.91-2.47-1,4.92h-2.31l2-10h2.16l1.27,4.4,3.09-4.4h2.27Z" transform="translate(-127.17 -116)"/><path class="cls-3" d="M435.19,223.79c0-.7-.34-1.18-1-1.18a1.32,1.32,0,0,0-1,.44,5.59,5.59,0,0,0-.9,2.59,10.94,10.94,0,0,0-.27,2,1,1,0,0,0,1,1.06,1.77,1.77,0,0,0,1.63-1.6l0-.21h-1.41l.37-1.93h3.7l-.25,1.34a6.06,6.06,0,0,1-1.45,3.3,3.73,3.73,0,0,1-2.81,1.15,2.87,2.87,0,0,1-3.16-2.92,11.88,11.88,0,0,1,.26-2.16c.46-2.33.68-3,1.52-3.91a4,4,0,0,1,2.91-1.16,3,3,0,0,1,3.15,3.22Z" transform="translate(-127.17 -116)"/><path class="cls-3" d="M444,226.55l1.32,4.08h-2.53l-1.05-3.78h-.87l-.77,3.78h-2.31l2-10h3.52a2.62,2.62,0,0,1,2.85,2.89A3.31,3.31,0,0,1,444,226.55Zm-1.09-3.82h-1.22l-.45,2.18h1.21a1.25,1.25,0,0,0,1.37-1.25A.83.83,0,0,0,442.94,222.73Z" transform="translate(-127.17 -116)"/><path class="cls-3" d="M454.49,222.7h-4.08l-.38,1.88h3.53l-.41,2h-3.52l-.39,2h4.16l-.4,2h-6.49l2-10h6.39Z" transform="translate(-127.17 -116)"/><path class="cls-3" d="M462.58,222.7H458.5l-.37,1.88h3.52l-.4,2h-3.53l-.39,2h4.17l-.41,2H454.6l2-10H463Z" transform="translate(-127.17 -116)"/><path class="cls-3" d="M470.08,230.63h-1.93l-2.1-5.18-1,5.18h-2.32l2-10h1.93l2.11,5.2,1-5.2h2.31Z" transform="translate(-127.17 -116)"/><path class="cls-3" d="M478.34,230.63H472l2-10h2.32l-1.58,7.94h4Z" transform="translate(-127.17 -116)"/><path class="cls-3" d="M485.1,230.63l-.13-1.57H482l-.77,1.57h-2.47l5.41-10H486l1.46,10Zm-.62-6.4L483,227.17h1.81Z" transform="translate(-127.17 -116)"/><path class="cls-3" d="M497.19,230.63h-2.31l1-4.92-1.77,2.47h-1.48l-.9-2.47-1,4.92H488.4l2-10h2.16l1.26,4.4,3.1-4.4h2.27Z" transform="translate(-127.17 -116)"/></svg>