<?xml version="1.0" encoding="utf-8"?>
<!-- Generator: Adobe Illustrator 25.4.1, SVG Export Plug-In . SVG Version: 6.00 Build 0)  -->
<svg version="1.1" id="Layer_1" xmlns="http://www.w3.org/2000/svg" xmlns:xlink="http://www.w3.org/1999/xlink" x="0px" y="0px"
	 viewBox="0 0 143.6 79" style="enable-background:new 0 0 143.6 79;" xml:space="preserve">
<style type="text/css">
	.st0{clip-path:url(#SVGID_00000111162247184118563350000015620940775933966479_);}
	.st1{fill:#1D526D;}
	.st2{clip-path:url(#SVGID_00000044157711105120741600000015380577910533928327_);}
	.st3{fill:#171C1F;}
	.st4{clip-path:url(#SVGID_00000181765666347862219150000017155518451258100120_);}
	.st5{clip-path:url(#SVGID_00000090972828795564770430000004123497490717088950_);}
	.st6{filter:url(#Adobe_OpacityMaskFilter);}
	.st7{mask:url(#_x33_d450b08ab_00000031926411458524129630000010926887833870994837_);}
	.st8{clip-path:url(#SVGID_00000120548474914848118850000014970908479121214622_);}
	.st9{clip-path:url(#SVGID_00000093166704416484959250000000952890462880605856_);}
	.st10{fill:#FCD7A7;}
	.st11{clip-path:url(#SVGID_00000132076230831296551150000014249068648784911768_);}
</style>
<g>
	<defs>
		<rect id="SVGID_1_" x="79.6" y="15.6" width="19.9" height="29.4"/>
	</defs>
	<clipPath id="SVGID_00000055680836118386128320000011083420035605539216_">
		<use xlink:href="#SVGID_1_"  style="overflow:visible;"/>
	</clipPath>
	<g style="clip-path:url(#SVGID_00000055680836118386128320000011083420035605539216_);">
		<path class="st1" d="M88.2,19.4h4.8v6l6.7,4.9h-4.8V45h-15V15.7l8.4,6.1V19.4z"/>
	</g>
</g>
<g>
	<defs>
		<rect id="SVGID_00000140013555777440796770000001123104901354544261_" x="41.5" y="9" width="38.1" height="36"/>
	</defs>
	<clipPath id="SVGID_00000089544722088515738130000003524612058435556770_">
		<use xlink:href="#SVGID_00000140013555777440796770000001123104901354544261_"  style="overflow:visible;"/>
	</clipPath>
	<g style="clip-path:url(#SVGID_00000089544722088515738130000003524612058435556770_);">
		<path class="st3" d="M41.5,44.1v1h37v-1h-8v-2h8v-1h-8V24.7l8-3.9v-1.1l-8,3.9v-2.9l8-3.9v-1.1l-8,3.9V9.1h-1v11l-2.8,1.4V9.1h-1
			v12.9l-9.1,4.5v-7.1h-1v7.5l-7.4,3.7v1.1l7.4-3.7v2.9l-10,4.9v1.1l10-4.9v9H48v1h7.6v2L41.5,44.1L41.5,44.1z M66.7,42h2.8v2h-2.8
			V42z M66.7,26.6l2.8-1.4v15.9h-2.8V26.6z M66.7,22.5l2.8-1.4v2.9l-2.8,1.4V22.5z M56.7,42h9.1v2h-9.1V42z M56.7,31.5l9.1-4.5v14
			h-9.1V31.5z M56.7,27.5l9.1-4.5v2.9l-9.1,4.5V27.5z"/>
	</g>
</g>
<g>
	<defs>
		<rect id="SVGID_00000054248481615119555240000009969699437708783244_" x="42.3" y="12.9" width="66.7" height="58.7"/>
	</defs>
	<clipPath id="SVGID_00000064345228264147706660000007068010268704177313_">
		<use xlink:href="#SVGID_00000054248481615119555240000009969699437708783244_"  style="overflow:visible;"/>
	</clipPath>
	<g style="clip-path:url(#SVGID_00000064345228264147706660000007068010268704177313_);">
		<g>
			<defs>
				
					<rect id="SVGID_00000031910121920471456410000009068298418007793042_" x="48.4" y="24" transform="matrix(0.8918 -0.4524 0.4524 0.8918 -10.8082 38.8754)" width="55" height="36"/>
			</defs>
			<clipPath id="SVGID_00000083062452195043366270000009878113354024297919_">
				<use xlink:href="#SVGID_00000031910121920471456410000009068298418007793042_"  style="overflow:visible;"/>
			</clipPath>
			<g style="clip-path:url(#SVGID_00000083062452195043366270000009878113354024297919_);">
				<defs>
					<filter id="Adobe_OpacityMaskFilter" filterUnits="userSpaceOnUse" x="37.4" y="2.1" width="77.1" height="80.2">
						<feColorMatrix  type="matrix" values="1 0 0 0 0  0 1 0 0 0  0 0 1 0 0  0 0 0 1 0"/>
					</filter>
				</defs>
				
					<mask maskUnits="userSpaceOnUse" x="37.4" y="2.1" width="77.1" height="80.2" id="_x33_d450b08ab_00000031926411458524129630000010926887833870994837_">
					<g class="st6">
						<g transform="matrix(0.0494451, -0.0250831, 0.025194, 0.0496637, 99.359197, 54.558181)">
							
								<image style="overflow:visible;enable-background:new    ;" width="744" height="835" xlink:href="7527C55A.jpg"  transform="matrix(1.3333 0 0 1.3333 -771.403 -944.0933)">
							</image>
						</g>
					</g>
				</mask>
				<g class="st7">
					<g transform="matrix(0.0494451, -0.0250831, 0.025194, 0.0496637, 99.359197, 54.558181)">
						<g transform="matrix(1 0 0 1 0 0)" style="enable-background:new    ;">
							
								<image style="overflow:visible;" width="744" height="835" xlink:href="7527C55E.png"  transform="matrix(1.3333 0 0 1.3333 -771.403 -944.0933)">
							</image>
						</g>
					</g>
				</g>
			</g>
		</g>
	</g>
</g>
<g>
	<defs>
		<rect id="SVGID_00000054985535075909912480000014202177211197551243_" x="83.6" y="30.4" width="5.4" height="6.7"/>
	</defs>
	<clipPath id="SVGID_00000030455825302363736940000001975757892075906483_">
		<use xlink:href="#SVGID_00000054985535075909912480000014202177211197551243_"  style="overflow:visible;"/>
	</clipPath>
	<g style="clip-path:url(#SVGID_00000030455825302363736940000001975757892075906483_);">
		<g>
			<defs>
				<path id="SVGID_00000075852477871785196860000000531249260881869734_" d="M87.2,30.6c-0.3-0.1-0.6-0.2-0.9-0.2s-0.6,0.1-0.9,0.1
					c0,0,0,0,0,0c-1,0.4-1.8,1.4-1.8,2.5v4h5.4v-3.9C88.9,32,88.2,31,87.2,30.6z"/>
			</defs>
			<clipPath id="SVGID_00000000203309468218193760000004637649333057594781_">
				<use xlink:href="#SVGID_00000075852477871785196860000000531249260881869734_"  style="overflow:visible;"/>
			</clipPath>
			<g style="clip-path:url(#SVGID_00000000203309468218193760000004637649333057594781_);">
				<path class="st10" d="M88.9,37.1h-5.4v-6.6h5.4V37.1z"/>
			</g>
		</g>
	</g>
</g>
<g>
	<defs>
		<rect id="SVGID_00000106840836589499211140000000841056418927882925_" x="83.3" y="29.9" width="5.9" height="7.6"/>
	</defs>
	<clipPath id="SVGID_00000166636955548011503930000011053219081976615320_">
		<use xlink:href="#SVGID_00000106840836589499211140000000841056418927882925_"  style="overflow:visible;"/>
	</clipPath>
	<g style="clip-path:url(#SVGID_00000166636955548011503930000011053219081976615320_);">
		<path d="M86.2,29.9c-1.6,0-2.9,1.3-2.9,2.9v4.6h5.8v-4.6C89.1,31.3,87.8,29.9,86.2,29.9z M88.6,32.9v0.9h-2.3v-3.3
			C87.6,30.5,88.6,31.6,88.6,32.9z M86,30.4v3.3h-2.3v-0.9C83.8,31.6,84.8,30.5,86,30.4z M83.8,37v-2.9H86V37H83.8z M86.4,37v-2.9
			h2.3V37H86.4z"/>
	</g>
</g>
<g>
	<g transform="translate(75.072067, 81.735349)">
		<g>
			<path class="st1" d="M-68.6-18.5v-11.7h2.7v9.2h5.1v2.5H-68.6z"/>
		</g>
	</g>
</g>
<g>
	<g transform="translate(82.276572, 81.735349)">
		<g>
			<path class="st1" d="M-66.4-18.5v-8.8h2.5v8.8H-66.4z M-66.7-30.1c0-0.5,0.2-0.8,0.5-1.1c0.3-0.3,0.7-0.5,1.2-0.5
				c0.5,0,0.9,0.2,1.2,0.5c0.3,0.3,0.5,0.7,0.5,1.1c0,0.5-0.2,0.9-0.5,1.1c-0.3,0.3-0.7,0.4-1.2,0.4c-0.5,0-0.9-0.1-1.2-0.4
				C-66.6-29.2-66.7-29.6-66.7-30.1z"/>
		</g>
	</g>
</g>
<g>
	<g transform="translate(86.07895, 81.735349)">
		<g>
			<path class="st1" d="M-62.6-18.5l-3.6-8.8h2.8l1,2.8l1.2,3l1.1-3l1-2.8h2.8l-3.6,8.8H-62.6z"/>
		</g>
	</g>
</g>
<g>
	<g transform="translate(93.671196, 81.735349)">
		<g>
			<path class="st1" d="M-59.2-18.3c-0.8,0-1.5-0.1-2.1-0.4c-0.6-0.3-1.1-0.6-1.4-1.1c-0.3-0.5-0.5-1-0.5-1.6h2.5
				c0,0.3,0.2,0.6,0.4,0.9c0.3,0.2,0.6,0.3,1.1,0.3c0.4,0,0.7-0.1,0.9-0.2c0.2-0.2,0.3-0.4,0.3-0.6c0-0.3-0.2-0.5-0.5-0.7
				c-0.3-0.2-0.8-0.3-1.5-0.5c-1.1-0.2-1.9-0.5-2.5-1c-0.5-0.4-0.8-1-0.8-1.8c0-0.9,0.3-1.5,1-2c0.6-0.5,1.5-0.7,2.7-0.7
				c1.2,0,2.1,0.2,2.7,0.8c0.7,0.5,1,1.2,1.1,2.1h-2.4c0-0.3-0.2-0.6-0.4-0.8c-0.2-0.2-0.6-0.3-1-0.3c-0.4,0-0.7,0.1-0.9,0.2
				c-0.2,0.1-0.3,0.3-0.3,0.6c0,0.3,0.1,0.5,0.4,0.6c0.3,0.1,0.8,0.3,1.6,0.5c2.2,0.4,3.2,1.4,3.2,2.8c0,0.8-0.3,1.5-1,2
				C-57.1-18.5-58-18.3-59.2-18.3z"/>
		</g>
	</g>
</g>
<g>
	<g transform="translate(100.512974, 81.735349)">
		<g>
			<path class="st1" d="M-56-18.5c-1.1,0-2-0.3-2.6-0.9c-0.6-0.6-0.9-1.4-0.9-2.5v-3.4h-1.7v-2.1h0.8c0.5,0,0.8-0.1,1-0.2
				c0.2-0.2,0.3-0.4,0.4-0.9l0.1-1.1h2v2.2h2.4v2.1H-57v3c0,1,0.5,1.5,1.5,1.5h1v2.2H-56z"/>
		</g>
	</g>
</g>
<g>
	<g transform="translate(106.354127, 81.735349)">
		<g>
			<path class="st1" d="M-58.3-15.1v-2.2h1c0.5,0,0.9-0.1,1.1-0.2c0.2-0.2,0.4-0.4,0.6-0.9l0.1-0.3l-3.9-8.5h2.8l2.4,5.4l0.8-2.2
				l1.2-3.2h2.7l-3.9,9.8c-0.2,0.6-0.5,1.1-0.8,1.4c-0.3,0.3-0.7,0.6-1.1,0.7c-0.4,0.1-1,0.2-1.7,0.2H-58.3z"/>
		</g>
	</g>
</g>
<g>
	<g transform="translate(113.946373, 81.735349)">
		<g>
			<path class="st1" d="M-55.8-18.5v-12.4h2.5v12.4H-55.8z"/>
		</g>
	</g>
</g>
<g>
	<g transform="translate(117.748751, 81.735349)">
		<g>
			<path class="st1" d="M-50.4-18.3c-0.9,0-1.8-0.2-2.5-0.6c-0.7-0.4-1.3-0.9-1.7-1.6c-0.4-0.7-0.6-1.5-0.6-2.4
				c0-0.9,0.2-1.7,0.6-2.4c0.4-0.7,1-1.2,1.7-1.6c0.7-0.4,1.6-0.6,2.5-0.6c1,0,1.9,0.2,2.6,0.7c0.7,0.4,1.3,1.1,1.7,1.9
				c0.4,0.8,0.6,1.7,0.5,2.8h-7c0.1,0.6,0.4,1.1,0.8,1.4c0.4,0.3,0.9,0.5,1.5,0.5c0.4,0,0.8-0.1,1.1-0.2c0.4-0.2,0.6-0.4,0.9-0.7
				h2.6c-0.4,0.9-1,1.7-1.8,2.2C-48.4-18.5-49.3-18.3-50.4-18.3z M-52.6-23.7h4.6c-0.2-0.5-0.4-1-0.8-1.3c-0.4-0.3-0.9-0.5-1.5-0.5
				c-0.6,0-1,0.2-1.5,0.5C-52.2-24.7-52.5-24.3-52.6-23.7z"/>
		</g>
	</g>
</g>
<g>
	<g transform="translate(125.866326, 81.735349)">
	</g>
</g>
<g>
	<g transform="translate(128.805663, 81.735349)">
		<g>
			<path class="st1" d="M-43.5-18.5v-4.7H-48v4.7h-2.7v-11.7h2.7v4.5h4.6v-4.5h2.6v11.7H-43.5z"/>
		</g>
	</g>
</g>
<g>
	<g transform="translate(138.311607, 81.735349)">
		<g>
			<path class="st1" d="M-43.4-18.3c-1,0-1.8-0.2-2.6-0.6c-0.7-0.4-1.3-0.9-1.7-1.6c-0.4-0.7-0.6-1.5-0.6-2.4c0-0.9,0.2-1.7,0.6-2.4
				c0.4-0.7,1-1.2,1.7-1.6c0.8-0.4,1.6-0.6,2.6-0.6c1,0,1.8,0.2,2.5,0.6c0.8,0.4,1.3,0.9,1.7,1.6c0.4,0.7,0.6,1.5,0.6,2.4
				c0,0.9-0.2,1.7-0.6,2.4c-0.4,0.7-1,1.2-1.7,1.6C-41.6-18.4-42.4-18.3-43.4-18.3z M-45.8-22.9c0,0.7,0.2,1.3,0.7,1.8
				c0.5,0.4,1,0.7,1.8,0.7c0.7,0,1.3-0.2,1.7-0.7c0.4-0.5,0.7-1,0.7-1.8c0-0.7-0.2-1.3-0.7-1.8c-0.4-0.5-1-0.7-1.7-0.7
				c-0.7,0-1.3,0.2-1.8,0.7C-45.6-24.2-45.8-23.6-45.8-22.9z"/>
		</g>
	</g>
</g>
<g>
	<g transform="translate(146.654324, 81.735349)">
		<g>
			<path class="st1" d="M-44.9-18.5v-8.8h1.9l0.2,0.9c0.3-0.4,0.7-0.7,1.2-0.9c0.5-0.2,1-0.3,1.5-0.3c1.3,0,2.3,0.5,2.9,1.4
				c0.3-0.5,0.8-0.8,1.3-1.1s1.1-0.4,1.8-0.4c1.1,0,2,0.3,2.7,1c0.7,0.7,1,1.6,1,2.9v5.1h-2.5v-4.8c0-0.6-0.2-1.1-0.5-1.5
				c-0.3-0.4-0.7-0.5-1.2-0.5c-0.5,0-1,0.2-1.3,0.6c-0.3,0.4-0.5,0.9-0.5,1.5v4.7h-2.5v-4.8c0-0.6-0.2-1.1-0.5-1.5
				c-0.3-0.4-0.7-0.5-1.2-0.5c-0.5,0-1,0.2-1.3,0.6c-0.3,0.4-0.5,0.9-0.5,1.5v4.7H-44.9z"/>
		</g>
	</g>
</g>
<g>
	<g transform="translate(159.33726, 81.735349)">
		<g>
			<path class="st1" d="M-36.5-18.3c-0.9,0-1.8-0.2-2.5-0.6c-0.7-0.4-1.3-0.9-1.7-1.6c-0.4-0.7-0.6-1.5-0.6-2.4
				c0-0.9,0.2-1.7,0.6-2.4c0.4-0.7,1-1.2,1.7-1.6c0.7-0.4,1.6-0.6,2.5-0.6c1,0,1.9,0.2,2.6,0.7c0.7,0.4,1.3,1.1,1.7,1.9
				c0.4,0.8,0.6,1.7,0.5,2.8h-7c0.1,0.6,0.4,1.1,0.8,1.4c0.4,0.3,0.9,0.5,1.5,0.5c0.4,0,0.8-0.1,1.1-0.2c0.4-0.2,0.6-0.4,0.9-0.7
				h2.6c-0.4,0.9-1,1.7-1.8,2.2C-34.5-18.5-35.5-18.3-36.5-18.3z M-38.7-23.7h4.6c-0.2-0.5-0.4-1-0.8-1.3c-0.4-0.3-0.9-0.5-1.5-0.5
				c-0.6,0-1,0.2-1.5,0.5C-38.3-24.7-38.6-24.3-38.7-23.7z"/>
		</g>
	</g>
</g>
<g>
	<g transform="translate(167.454834, 81.735349)">
		<g>
			<path class="st1" d="M-34.6-18.3c-0.8,0-1.5-0.1-2.1-0.4c-0.6-0.3-1.1-0.6-1.4-1.1c-0.3-0.5-0.5-1-0.5-1.6h2.5
				c0,0.3,0.2,0.6,0.4,0.9c0.3,0.2,0.6,0.3,1.1,0.3c0.4,0,0.7-0.1,0.9-0.2c0.2-0.2,0.3-0.4,0.3-0.6c0-0.3-0.2-0.5-0.5-0.7
				c-0.3-0.2-0.8-0.3-1.5-0.5c-1.1-0.2-1.9-0.5-2.5-1c-0.5-0.4-0.8-1-0.8-1.8c0-0.9,0.3-1.5,1-2c0.6-0.5,1.5-0.7,2.7-0.7
				c1.2,0,2.1,0.2,2.7,0.8c0.7,0.5,1,1.2,1.1,2.1h-2.4c0-0.3-0.2-0.6-0.4-0.8c-0.2-0.2-0.6-0.3-1-0.3c-0.4,0-0.7,0.1-0.9,0.2
				c-0.2,0.1-0.3,0.3-0.3,0.6c0,0.3,0.1,0.5,0.4,0.6c0.3,0.1,0.8,0.3,1.6,0.5c2.2,0.4,3.2,1.4,3.2,2.8c0,0.8-0.3,1.5-1,2
				C-32.5-18.5-33.4-18.3-34.6-18.3z"/>
		</g>
	</g>
</g>
<g>
	<g transform="translate(83.372205, 88.734837)">
		<g>
			<path d="M-66.7-16.1V-20h0.5v3.9H-66.7z"/>
		</g>
	</g>
</g>
<g>
	<g transform="translate(86.143365, 88.734837)">
		<g>
			<path d="M-65.8-16.1V-20h0.5l2.1,3v-3h0.5v3.9h-0.5l-2.1-3v3H-65.8z"/>
		</g>
	</g>
</g>
<g>
	<g transform="translate(90.858879, 88.734837)">
		<g>
			<path d="M-63.3-16.1v-3.4h-1.3V-20h3.1v0.5h-1.3v3.4H-63.3z"/>
		</g>
	</g>
</g>
<g>
	<g transform="translate(95.034295, 88.734837)">
		<g>
			<path d="M-62.8-16.1V-20h2.4v0.5h-1.9v1.2h1.7v0.5h-1.7v1.3h1.9v0.5H-62.8z"/>
		</g>
	</g>
</g>
<g>
	<g transform="translate(99.097534, 88.734837)">
		<g>
			<path d="M-61.5-16.1V-20h1.5c0.3,0,0.5,0.1,0.7,0.1c0.2,0.1,0.3,0.2,0.5,0.4c0.1,0.2,0.2,0.4,0.2,0.7c0,0.3-0.1,0.6-0.2,0.8
				c-0.2,0.2-0.4,0.3-0.7,0.4l1,1.4h-0.6l-0.9-1.4H-61v1.4H-61.5z M-61-18h0.9c0.3,0,0.5-0.1,0.7-0.2c0.2-0.1,0.2-0.3,0.2-0.6
				c0-0.2-0.1-0.4-0.2-0.6c-0.2-0.1-0.4-0.2-0.7-0.2H-61V-18z"/>
		</g>
	</g>
</g>
<g>
	<g transform="translate(103.484832, 88.734837)">
		<g>
			<path d="M-60-16.1V-20h0.5v3.9H-60z"/>
		</g>
	</g>
</g>
<g>
	<g transform="translate(106.255993, 88.734837)">
		<g>
			<path d="M-57.3-16.1c-0.4,0-0.7-0.1-1-0.2c-0.3-0.2-0.6-0.4-0.7-0.7c-0.2-0.3-0.2-0.7-0.2-1c0-0.4,0.1-0.8,0.2-1
				c0.2-0.3,0.4-0.5,0.7-0.7c0.3-0.2,0.7-0.3,1-0.3c0.4,0,0.7,0.1,1,0.3c0.3,0.2,0.5,0.4,0.7,0.7c0.2,0.3,0.2,0.6,0.2,1
				c0,0.4-0.1,0.7-0.2,1c-0.2,0.3-0.4,0.5-0.7,0.7C-56.6-16.2-56.9-16.1-57.3-16.1z M-58.8-18.1c0,0.3,0.1,0.6,0.2,0.8
				c0.1,0.2,0.3,0.4,0.5,0.5c0.2,0.1,0.5,0.2,0.8,0.2c0.3,0,0.5-0.1,0.8-0.2c0.2-0.1,0.4-0.3,0.5-0.5c0.1-0.2,0.2-0.5,0.2-0.8
				c0-0.3-0.1-0.6-0.2-0.8c-0.1-0.2-0.3-0.4-0.5-0.5c-0.2-0.1-0.5-0.2-0.8-0.2c-0.3,0-0.6,0.1-0.8,0.2c-0.2,0.1-0.4,0.3-0.5,0.5
				C-58.8-18.7-58.8-18.4-58.8-18.1z"/>
		</g>
	</g>
</g>
<g>
	<g transform="translate(111.303876, 88.734837)">
		<g>
			<path d="M-57.4-16.1V-20h1.5c0.3,0,0.5,0.1,0.7,0.1c0.2,0.1,0.3,0.2,0.5,0.4c0.1,0.2,0.2,0.4,0.2,0.7c0,0.3-0.1,0.6-0.2,0.8
				c-0.2,0.2-0.4,0.3-0.7,0.4l1,1.4h-0.6l-0.9-1.4h-0.9v1.4H-57.4z M-56.9-18h0.9c0.3,0,0.5-0.1,0.7-0.2c0.2-0.1,0.2-0.3,0.2-0.6
				c0-0.2-0.1-0.4-0.2-0.6c-0.2-0.1-0.4-0.2-0.7-0.2h-0.9V-18z"/>
		</g>
	</g>
</g>
<g>
	<g transform="translate(115.691176, 88.734837)">
		<g>
			<path d="M-54.6-16.1c-0.3,0-0.6-0.1-0.8-0.1c-0.2-0.1-0.4-0.3-0.5-0.4c-0.1-0.2-0.2-0.4-0.2-0.7h0.5c0,0.2,0.1,0.4,0.3,0.6
				c0.2,0.1,0.4,0.2,0.8,0.2c0.3,0,0.5,0,0.6-0.1c0.2-0.1,0.2-0.3,0.2-0.5c0-0.2-0.1-0.3-0.2-0.4c-0.2-0.1-0.4-0.2-0.8-0.3
				c-0.5-0.1-0.8-0.3-1-0.4c-0.2-0.2-0.3-0.4-0.3-0.7c0-0.3,0.1-0.6,0.4-0.8c0.2-0.2,0.6-0.3,1-0.3c0.4,0,0.8,0.1,1,0.3
				c0.2,0.2,0.4,0.5,0.4,0.9h-0.5c0-0.2-0.1-0.4-0.3-0.5c-0.2-0.1-0.4-0.2-0.7-0.2c-0.3,0-0.5,0.1-0.7,0.2c-0.2,0.1-0.2,0.2-0.2,0.4
				c0,0.2,0.1,0.3,0.2,0.4c0.2,0.1,0.4,0.2,0.8,0.3c0.5,0.1,0.9,0.3,1.1,0.5c0.2,0.2,0.3,0.4,0.3,0.7c0,0.3-0.1,0.6-0.4,0.8
				C-53.9-16.2-54.2-16.1-54.6-16.1z"/>
		</g>
	</g>
</g>
<g>
	<g transform="translate(119.937218, 88.734837)">
	</g>
</g>
<g>
	<g transform="translate(122.525578, 88.734837)">
		<g>
			<path d="M-52.6-16.1c-0.4,0-0.7-0.1-1-0.3c-0.2-0.2-0.4-0.4-0.4-0.8c0-0.2,0.1-0.4,0.2-0.6c0.1-0.2,0.3-0.3,0.6-0.5
				c-0.2-0.2-0.3-0.3-0.4-0.5c-0.1-0.2-0.1-0.3-0.1-0.5c0-0.2,0-0.3,0.1-0.5c0.1-0.1,0.2-0.2,0.4-0.3c0.2-0.1,0.4-0.1,0.6-0.1
				c0.2,0,0.4,0,0.6,0.1c0.2,0.1,0.3,0.2,0.4,0.4c0.1,0.1,0.1,0.3,0.1,0.5c0,0.5-0.3,0.9-1,1.1l0.9,0.9c0.1-0.2,0.2-0.5,0.2-0.9h0.5
				c0,0.5-0.1,0.9-0.3,1.2l0.6,0.6h-0.6l-0.3-0.3C-51.7-16.2-52.1-16.1-52.6-16.1z M-53.4-17.1c0,0.2,0.1,0.3,0.2,0.4
				c0.2,0.1,0.4,0.2,0.6,0.2c0.3,0,0.6-0.1,0.8-0.3l-1-1.1C-53.2-17.7-53.4-17.4-53.4-17.1z M-53.1-19.2c0,0.1,0,0.2,0.1,0.3
				c0.1,0.1,0.2,0.3,0.4,0.5c0.3-0.1,0.5-0.2,0.7-0.3c0.1-0.1,0.2-0.3,0.2-0.4c0-0.2-0.1-0.3-0.2-0.4c-0.1-0.1-0.3-0.1-0.5-0.1
				s-0.4,0-0.5,0.1C-53.1-19.5-53.1-19.3-53.1-19.2z"/>
		</g>
	</g>
</g>
<g>
	<g transform="translate(127.029204, 88.734837)">
	</g>
</g>
<g>
	<g transform="translate(129.617564, 88.734837)">
		<g>
			<path d="M-51.3-16.1V-20h2.4v0.5h-1.9v1.2h1.7v0.5h-1.7v1.3h1.9v0.5H-51.3z"/>
		</g>
	</g>
</g>
<g>
	<g transform="translate(133.680806, 88.734837)">
		<g>
			<path d="M-50.3-16.1l1.4-2l-1.3-1.9h0.6l1.1,1.5l0.3-0.5l0.7-1h0.6l-1.3,1.9l1.4,2h-0.6l-0.8-1.1l-0.3-0.5l-1.1,1.6H-50.3z"/>
		</g>
	</g>
</g>
<g>
	<g transform="translate(138.093034, 88.734837)">
		<g>
			<path d="M-47.5-16.1v-3.4h-1.3V-20h3.1v0.5H-47v3.4H-47.5z"/>
		</g>
	</g>
</g>
<g>
	<g transform="translate(142.268451, 88.734837)">
		<g>
			<path d="M-47.1-16.1V-20h2.4v0.5h-1.9v1.2h1.7v0.5h-1.7v1.3h1.9v0.5H-47.1z"/>
		</g>
	</g>
</g>
<g>
	<g transform="translate(146.331692, 88.734837)">
		<g>
			<path d="M-45.7-16.1V-20h1.5c0.3,0,0.5,0.1,0.7,0.1c0.2,0.1,0.3,0.2,0.5,0.4c0.1,0.2,0.2,0.4,0.2,0.7c0,0.3-0.1,0.6-0.2,0.8
				c-0.2,0.2-0.4,0.3-0.7,0.4l1,1.4h-0.6l-0.9-1.4h-0.9v1.4H-45.7z M-45.2-18h0.9c0.3,0,0.5-0.1,0.7-0.2c0.2-0.1,0.2-0.3,0.2-0.6
				c0-0.2-0.1-0.4-0.2-0.6c-0.2-0.1-0.4-0.2-0.7-0.2h-0.9V-18z"/>
		</g>
	</g>
</g>
<g>
	<g transform="translate(150.718991, 88.734837)">
		<g>
			<path d="M-44.2-16.1V-20h0.5v3.9H-44.2z"/>
		</g>
	</g>
</g>
<g>
	<g transform="translate(153.490152, 88.734837)">
		<g>
			<path d="M-41.6-16.1c-0.4,0-0.7-0.1-1-0.2c-0.3-0.2-0.6-0.4-0.7-0.7c-0.2-0.3-0.2-0.7-0.2-1c0-0.4,0.1-0.8,0.2-1
				c0.2-0.3,0.4-0.5,0.7-0.7c0.3-0.2,0.7-0.3,1-0.3c0.4,0,0.7,0.1,1,0.3c0.3,0.2,0.5,0.4,0.7,0.7c0.2,0.3,0.2,0.6,0.2,1
				c0,0.4-0.1,0.7-0.2,1c-0.2,0.3-0.4,0.5-0.7,0.7C-40.8-16.2-41.2-16.1-41.6-16.1z M-43.1-18.1c0,0.3,0.1,0.6,0.2,0.8
				c0.1,0.2,0.3,0.4,0.5,0.5c0.2,0.1,0.5,0.2,0.8,0.2c0.3,0,0.5-0.1,0.8-0.2c0.2-0.1,0.4-0.3,0.5-0.5c0.1-0.2,0.2-0.5,0.2-0.8
				c0-0.3-0.1-0.6-0.2-0.8c-0.1-0.2-0.3-0.4-0.5-0.5c-0.2-0.1-0.5-0.2-0.8-0.2c-0.3,0-0.6,0.1-0.8,0.2c-0.2,0.1-0.4,0.3-0.5,0.5
				C-43-18.7-43.1-18.4-43.1-18.1z"/>
		</g>
	</g>
</g>
<g>
	<g transform="translate(158.538035, 88.734837)">
		<g>
			<path d="M-41.6-16.1V-20h1.5c0.3,0,0.5,0.1,0.7,0.1c0.2,0.1,0.3,0.2,0.5,0.4c0.1,0.2,0.2,0.4,0.2,0.7c0,0.3-0.1,0.6-0.2,0.8
				c-0.2,0.2-0.4,0.3-0.7,0.4l1,1.4h-0.6l-0.9-1.4h-0.9v1.4H-41.6z M-41.1-18h0.9c0.3,0,0.5-0.1,0.7-0.2c0.2-0.1,0.2-0.3,0.2-0.6
				c0-0.2-0.1-0.4-0.2-0.6c-0.2-0.1-0.4-0.2-0.7-0.2h-0.9V-18z"/>
		</g>
	</g>
</g>
<g>
	<g transform="translate(162.925334, 88.734837)">
		<g>
			<path d="M-38.9-16.1c-0.3,0-0.6-0.1-0.8-0.1c-0.2-0.1-0.4-0.3-0.5-0.4c-0.1-0.2-0.2-0.4-0.2-0.7h0.5c0,0.2,0.1,0.4,0.3,0.6
				c0.2,0.1,0.4,0.2,0.8,0.2c0.3,0,0.5,0,0.6-0.1c0.2-0.1,0.2-0.3,0.2-0.5c0-0.2-0.1-0.3-0.2-0.4c-0.2-0.1-0.4-0.2-0.8-0.3
				c-0.5-0.1-0.8-0.3-1-0.4c-0.2-0.2-0.3-0.4-0.3-0.7c0-0.3,0.1-0.6,0.4-0.8c0.2-0.2,0.6-0.3,1-0.3c0.4,0,0.8,0.1,1,0.3
				c0.2,0.2,0.4,0.5,0.4,0.9H-38c0-0.2-0.1-0.4-0.3-0.5c-0.2-0.1-0.4-0.2-0.7-0.2c-0.3,0-0.5,0.1-0.7,0.2c-0.2,0.1-0.2,0.2-0.2,0.4
				c0,0.2,0.1,0.3,0.2,0.4c0.2,0.1,0.4,0.2,0.8,0.3c0.5,0.1,0.9,0.3,1.1,0.5c0.2,0.2,0.3,0.4,0.3,0.7c0,0.3-0.1,0.6-0.4,0.8
				C-38.1-16.2-38.5-16.1-38.9-16.1z"/>
		</g>
	</g>
</g>
</svg>
