<svg id="Layer_1" data-name="Layer 1" xmlns="http://www.w3.org/2000/svg" viewBox="0 0 220 61"><path d="M12.41,35.05V17.43h4V31.3h7.69v3.75Z" style="fill:#1d526d"/><path d="M26.72,35.05V21.84h3.82V35.05Zm-.56-17.5a2.29,2.29,0,0,1,.69-1.71,2.52,2.52,0,0,1,1.79-.66,2.42,2.42,0,0,1,1.77.66,2.49,2.49,0,0,1,0,3.44,2.39,2.39,0,0,1-1.77.67,2.49,2.49,0,0,1-1.79-.67A2.29,2.29,0,0,1,26.16,17.55Z" style="fill:#1d526d"/><path d="M38.17,35.05,32.69,21.84h4.16L38.35,26l1.75,4.48L41.85,26l1.5-4.15H47.5L42,35.05Z" style="fill:#1d526d"/><path d="M54.74,35.41a7.93,7.93,0,0,1-3.17-.59,4.91,4.91,0,0,1-2.08-1.6,4,4,0,0,1-.75-2.42h3.75a1.64,1.64,0,0,0,.64,1.29,2.65,2.65,0,0,0,1.65.46,2.59,2.59,0,0,0,1.42-.33,1.05,1.05,0,0,0,.5-.92,1.22,1.22,0,0,0-.69-1,6.59,6.59,0,0,0-2.21-.67,8,8,0,0,1-3.71-1.45,3.35,3.35,0,0,1-1.16-2.65,3.42,3.42,0,0,1,1.43-3,7.06,7.06,0,0,1,4.13-1,6.62,6.62,0,0,1,4.12,1.15,4.09,4.09,0,0,1,1.63,3.2H56.59A1.48,1.48,0,0,0,56,24.68a2.47,2.47,0,0,0-1.5-.42,2.58,2.58,0,0,0-1.38.33,1,1,0,0,0-.48.9,1.07,1.07,0,0,0,.65,1,9.88,9.88,0,0,0,2.33.67c3.25.66,4.88,2.07,4.88,4.2a3.51,3.51,0,0,1-1.52,3A7.11,7.11,0,0,1,54.74,35.41Z" style="fill:#1d526d"/><path d="M69.78,35.05a5.31,5.31,0,0,1-3.85-1.29,4.85,4.85,0,0,1-1.36-3.71V25H62V21.84H63.2a2.16,2.16,0,0,0,1.45-.35,2.4,2.4,0,0,0,.57-1.35l.21-1.71h3v3.41H72V25H68.4v4.5a2,2,0,0,0,2.21,2.27H72.2v3.31Z" style="fill:#1d526d"/><path d="M75.22,40.09V36.78h1.52a3,3,0,0,0,1.69-.37,2.66,2.66,0,0,0,.86-1.34l.14-.45L73.49,21.84h4.23L81.26,30l1.21-3.35,1.77-4.82h4.11l-5.9,14.78a6.64,6.64,0,0,1-1.21,2.1,3.58,3.58,0,0,1-1.68,1.06,8.7,8.7,0,0,1-2.55.31Z" style="fill:#1d526d"/><path d="M90.46,35.05V16.43h3.81V35.05Z" style="fill:#1d526d"/><path d="M104.34,35.41a7.7,7.7,0,0,1-3.73-.88,6.46,6.46,0,0,1-2.54-2.46,7.22,7.22,0,0,1-.89-3.64,7,7,0,0,1,.91-3.63,6.39,6.39,0,0,1,2.54-2.43,7.79,7.79,0,0,1,3.78-.88,7.28,7.28,0,0,1,3.91,1,6.44,6.44,0,0,1,2.5,2.81,8.34,8.34,0,0,1,.75,4.21H101a3.39,3.39,0,0,0,1.19,2.11,3.61,3.61,0,0,0,2.25.7,4.24,4.24,0,0,0,1.75-.35,3.32,3.32,0,0,0,1.27-1h3.87a6.93,6.93,0,0,1-2.69,3.27A7.72,7.72,0,0,1,104.34,35.41ZM101,27.12h6.87a3.49,3.49,0,0,0-1.22-1.9,3.88,3.88,0,0,0-4.42,0A3.29,3.29,0,0,0,101,27.12Z" style="fill:#1d526d"/><path d="M131.47,35.05V28h-6.89v7.1h-4V17.43h4V24.2h6.89V17.43h4V35.05Z" style="fill:#1d526d"/><path d="M146,35.41a8.11,8.11,0,0,1-3.86-.88,6.61,6.61,0,0,1-2.62-2.46,7,7,0,0,1-.94-3.64,6.87,6.87,0,0,1,.94-3.63,6.54,6.54,0,0,1,2.62-2.43,8.93,8.93,0,0,1,7.73,0,6.51,6.51,0,0,1,2.61,2.43,7,7,0,0,1,.93,3.63,7,7,0,0,1-.93,3.64,6.58,6.58,0,0,1-2.61,2.46A8.12,8.12,0,0,1,146,35.41Zm-3.65-7a3.63,3.63,0,0,0,1,2.66,3.52,3.52,0,0,0,2.63,1,3.46,3.46,0,0,0,2.62-1,3.66,3.66,0,0,0,1-2.66,3.61,3.61,0,0,0-1-2.65,3.53,3.53,0,0,0-2.62-1,3.5,3.5,0,0,0-3.65,3.67Z" style="fill:#1d526d"/><path d="M156.29,35.05V21.84h2.83l.38,1.36a4.42,4.42,0,0,1,1.77-1.27,6.05,6.05,0,0,1,2.31-.44,4.85,4.85,0,0,1,4.35,2.17,5.5,5.5,0,0,1,2-1.61,6.48,6.48,0,0,1,2.72-.56,5.33,5.33,0,0,1,4,1.58,5.93,5.93,0,0,1,1.5,4.27v7.71h-3.82V27.8a3.36,3.36,0,0,0-.7-2.23,2.34,2.34,0,0,0-1.88-.81,2.45,2.45,0,0,0-2,.86,3.38,3.38,0,0,0-.73,2.29v7.14h-3.77V27.8a3.31,3.31,0,0,0-.71-2.23,2.28,2.28,0,0,0-1.85-.81,2.47,2.47,0,0,0-2,.86,3.38,3.38,0,0,0-.73,2.29v7.14Z" style="fill:#1d526d"/><path d="M188,35.41a7.7,7.7,0,0,1-3.73-.88,6.46,6.46,0,0,1-2.54-2.46,7.22,7.22,0,0,1-.89-3.64,7,7,0,0,1,.91-3.63,6.35,6.35,0,0,1,2.55-2.43,7.72,7.72,0,0,1,3.77-.88,7.28,7.28,0,0,1,3.91,1,6.44,6.44,0,0,1,2.5,2.81,8.34,8.34,0,0,1,.75,4.21H184.69a3.39,3.39,0,0,0,1.19,2.11,3.61,3.61,0,0,0,2.25.7,4.21,4.21,0,0,0,1.75-.35,3.32,3.32,0,0,0,1.27-1H195a7,7,0,0,1-2.68,3.27A7.78,7.78,0,0,1,188,35.41Zm-3.33-8.29h6.88a3.67,3.67,0,0,0-5.65-1.9A3.29,3.29,0,0,0,184.71,27.12Z" style="fill:#1d526d"/><path d="M203.23,35.41a7.92,7.92,0,0,1-3.16-.59,4.94,4.94,0,0,1-2.09-1.6,4,4,0,0,1-.75-2.42H201a1.65,1.65,0,0,0,.65,1.29,2.63,2.63,0,0,0,1.65.46,2.53,2.53,0,0,0,1.41-.33,1,1,0,0,0,.5-.92,1.23,1.23,0,0,0-.68-1,6.67,6.67,0,0,0-2.21-.67,8,8,0,0,1-3.71-1.45,3.36,3.36,0,0,1-1.17-2.65,3.41,3.41,0,0,1,1.44-3,7,7,0,0,1,4.12-1,6.63,6.63,0,0,1,4.13,1.15,4.08,4.08,0,0,1,1.62,3.2h-3.64a1.46,1.46,0,0,0-.63-1.16,2.43,2.43,0,0,0-1.5-.42,2.54,2.54,0,0,0-1.37.33,1,1,0,0,0-.48.9,1.06,1.06,0,0,0,.65,1,9.58,9.58,0,0,0,2.33.67c3.25.66,4.87,2.07,4.87,4.2a3.51,3.51,0,0,1-1.52,3A7.07,7.07,0,0,1,203.23,35.41Z" style="fill:#1d526d"/><path d="M27.87,49.14V43.29h.72v5.85Z"/><path d="M33.44,49.14V43.29h.69l3.23,4.58V43.29h.73v5.85H37.4l-3.23-4.58v4.58Z"/><path d="M44.35,49.14V44h-2v-.7h4.69V44h-2v5.15Z"/><path d="M51.34,49.14V43.29h3.54V44H52.07v1.86h2.6v.66h-2.6v2H55v.69Z"/><path d="M59.51,49.14V43.29h2.23a2.31,2.31,0,0,1,1.07.23,1.67,1.67,0,0,1,.7.64,1.93,1.93,0,0,1,.25,1,1.76,1.76,0,0,1-.37,1.17,1.84,1.84,0,0,1-1,.62l1.48,2.17H63L61.53,47H60.24v2.1Zm.73-2.79h1.42a1.51,1.51,0,0,0,1-.31,1.1,1.1,0,0,0,.35-.86,1.12,1.12,0,0,0-.35-.87,1.46,1.46,0,0,0-1-.32H60.24Z"/><path d="M68.34,49.14V43.29h.73v5.85Z"/><path d="M76.57,49.24A3.22,3.22,0,0,1,75,48.87a2.94,2.94,0,0,1-1.08-1.08,3.22,3.22,0,0,1-.37-1.57,3.26,3.26,0,0,1,.37-1.58A2.75,2.75,0,0,1,75,43.58a3.13,3.13,0,0,1,1.57-.4,3.17,3.17,0,0,1,1.58.4,2.58,2.58,0,0,1,1.06,1.06,3.17,3.17,0,0,1,.4,1.58,3.13,3.13,0,0,1-.4,1.57,2.75,2.75,0,0,1-1.06,1.08A3.26,3.26,0,0,1,76.57,49.24Zm-2.27-3a2.31,2.31,0,0,0,.29,1.19,2.05,2.05,0,0,0,.79.81,2.31,2.31,0,0,0,1.19.3,2.23,2.23,0,0,0,1.18-.3,2,2,0,0,0,.8-.81,2.41,2.41,0,0,0,.29-1.19,2.45,2.45,0,0,0-.29-1.2,2,2,0,0,0-.8-.82,2.32,2.32,0,0,0-1.18-.29,2.41,2.41,0,0,0-1.19.29,2.15,2.15,0,0,0-.79.82A2.35,2.35,0,0,0,74.3,46.22Z"/><path d="M84.08,49.14V43.29h2.23a2.27,2.27,0,0,1,1.06.23,1.76,1.76,0,0,1,.71.64,1.93,1.93,0,0,1,.25,1A1.76,1.76,0,0,1,88,46.35a1.87,1.87,0,0,1-1,.62l1.48,2.17h-.87L86.1,47H84.81v2.1Zm.73-2.79h1.42a1.53,1.53,0,0,0,1-.31,1.1,1.1,0,0,0,.35-.86,1.12,1.12,0,0,0-.35-.87,1.48,1.48,0,0,0-1-.32H84.81Z"/><path d="M94.85,49.24A3,3,0,0,1,93.64,49a2,2,0,0,1-.81-.67,1.79,1.79,0,0,1-.27-1h.73a1.1,1.1,0,0,0,.43.89,1.89,1.89,0,0,0,1.13.32,1.75,1.75,0,0,0,1-.25.8.8,0,0,0,0-1.34,3.55,3.55,0,0,0-1.15-.43,4,4,0,0,1-1.58-.65,1.38,1.38,0,0,1-.5-1.1,1.41,1.41,0,0,1,.56-1.17,2.47,2.47,0,0,1,1.54-.44,2.25,2.25,0,0,1,1.54.5A1.65,1.65,0,0,1,96.85,45h-.73a1,1,0,0,0-.4-.82,1.5,1.5,0,0,0-1-.31,1.7,1.7,0,0,0-1,.25.73.73,0,0,0-.35.65.75.75,0,0,0,.33.62,3.72,3.72,0,0,0,1.19.44,3.83,3.83,0,0,1,1.58.71,1.28,1.28,0,0,1,.48,1,1.45,1.45,0,0,1-.58,1.21A2.45,2.45,0,0,1,94.85,49.24Z"/><path d="M108.25,49.24a2.25,2.25,0,0,1-1.46-.41,1.41,1.41,0,0,1-.52-1.17,1.63,1.63,0,0,1,.27-.92,2.28,2.28,0,0,1,.92-.68,3.41,3.41,0,0,1-.55-.73,1.77,1.77,0,0,1-.18-.77,1.28,1.28,0,0,1,.79-1.19,2,2,0,0,1,.89-.19,1.93,1.93,0,0,1,.9.19,1.39,1.39,0,0,1,.6.52,1.16,1.16,0,0,1,.23.73c0,.74-.5,1.3-1.5,1.69L110,47.64a3.07,3.07,0,0,0,.31-1.33H111a3.49,3.49,0,0,1-.5,1.85l1,1h-.93l-.46-.46A2.68,2.68,0,0,1,108.25,49.24ZM107,47.66a.77.77,0,0,0,.35.67,1.66,1.66,0,0,0,.94.25,1.91,1.91,0,0,0,1.27-.42l-1.58-1.6C107.28,46.82,107,47.19,107,47.66Zm.45-3.1a1.09,1.09,0,0,0,.17.52,6.13,6.13,0,0,0,.56.71,3.24,3.24,0,0,0,1-.52.89.89,0,0,0,.32-.65.66.66,0,0,0-.3-.56,1.14,1.14,0,0,0-.75-.23,1.12,1.12,0,0,0-.72.21A.58.58,0,0,0,107.41,44.56Z"/><path d="M120.94,49.14V43.29h3.54V44h-2.81v1.86h2.6v.66h-2.6v2h2.91v.69Z"/><path d="M128.57,49.14l2.09-3-2-2.85h.87l1.61,2.31.5-.73,1.08-1.58h.85l-2,2.85,2.08,3h-.86l-1.2-1.73-.48-.71-1.69,2.44Z"/><path d="M139.41,49.14V44h-2v-.7h4.69V44h-2v5.15Z"/><path d="M146.4,49.14V43.29h3.54V44h-2.81v1.86h2.6v.66h-2.6v2h2.92v.69Z"/><path d="M154.58,49.14V43.29h2.23a2.27,2.27,0,0,1,1.06.23,1.76,1.76,0,0,1,.71.64,2,2,0,0,1,.25,1,1.77,1.77,0,0,1-.38,1.17,1.84,1.84,0,0,1-1,.62l1.48,2.17H158L156.6,47h-1.29v2.1Zm.73-2.79h1.41a1.51,1.51,0,0,0,1-.31,1.07,1.07,0,0,0,.36-.86,1.1,1.1,0,0,0-.36-.87,1.46,1.46,0,0,0-1-.32h-1.41Z"/><path d="M163.41,49.14V43.29h.73v5.85Z"/><path d="M171.63,49.24a3.21,3.21,0,0,1-1.56-.37A2.9,2.9,0,0,1,169,47.79a3.22,3.22,0,0,1-.37-1.57,3.26,3.26,0,0,1,.37-1.58,2.71,2.71,0,0,1,1.09-1.06,3.12,3.12,0,0,1,1.56-.4,3.17,3.17,0,0,1,1.58.4,2.6,2.6,0,0,1,1.07,1.06,3.16,3.16,0,0,1,.39,1.58,3.13,3.13,0,0,1-.39,1.57,2.78,2.78,0,0,1-1.07,1.08A3.26,3.26,0,0,1,171.63,49.24Zm-2.27-3a2.31,2.31,0,0,0,.29,1.19,2.05,2.05,0,0,0,.79.81,2.34,2.34,0,0,0,1.19.3,2.29,2.29,0,0,0,1.19-.3,1.93,1.93,0,0,0,.79-.81,2.41,2.41,0,0,0,.29-1.19,2.45,2.45,0,0,0-.29-1.2,2,2,0,0,0-.79-.82,2.38,2.38,0,0,0-1.19-.29,2.44,2.44,0,0,0-1.19.29,2.15,2.15,0,0,0-.79.82A2.35,2.35,0,0,0,169.36,46.22Z"/><path d="M179.14,49.14V43.29h2.23a2.24,2.24,0,0,1,1.06.23,1.64,1.64,0,0,1,.71.64,1.93,1.93,0,0,1,.25,1,1.76,1.76,0,0,1-.37,1.17,1.88,1.88,0,0,1-1,.62l1.48,2.17h-.88L181.16,47h-1.29v2.1Zm.73-2.79h1.42a1.51,1.51,0,0,0,1-.31,1.1,1.1,0,0,0,.35-.86,1.12,1.12,0,0,0-.35-.87,1.46,1.46,0,0,0-1-.32h-1.42Z"/><path d="M189.91,49.24A3,3,0,0,1,188.7,49a2,2,0,0,1-.81-.67,1.87,1.87,0,0,1-.27-1h.73a1.08,1.08,0,0,0,.44.89,1.86,1.86,0,0,0,1.12.32,1.73,1.73,0,0,0,1-.25.8.8,0,0,0,0-1.34,3.55,3.55,0,0,0-1.15-.43,4,4,0,0,1-1.58-.65,1.38,1.38,0,0,1-.5-1.1,1.41,1.41,0,0,1,.56-1.17,2.48,2.48,0,0,1,1.55-.44,2.26,2.26,0,0,1,1.54.5,1.67,1.67,0,0,1,.58,1.34h-.73a1,1,0,0,0-.39-.82,1.51,1.51,0,0,0-1-.31,1.66,1.66,0,0,0-1,.25.74.74,0,0,0-.36.65.75.75,0,0,0,.33.62,3.72,3.72,0,0,0,1.19.44,4,4,0,0,1,1.59.71,1.3,1.3,0,0,1,.47,1,1.43,1.43,0,0,1-.58,1.21A2.41,2.41,0,0,1,189.91,49.24Z"/></svg>