<svg xmlns="http://www.w3.org/2000/svg" xmlns:xlink="http://www.w3.org/1999/xlink" width="336" zoomAndPan="magnify" viewBox="0 0 252 143.999998" height="192" preserveAspectRatio="xMidYMid meet" version="1.0"><defs><g/></defs><rect x="-25.2" width="302.4" fill="#ffffff" y="-14.4" height="172.799997" fill-opacity="1"/><rect x="-25.2" width="302.4" fill="#ffffff" y="-14.4" height="172.799997" fill-opacity="1"/><g fill="#1d526d" fill-opacity="1"><g transform="translate(57.979922, 69.789978)"><g><path d="M 1.578125 0 L 1.578125 -13.21875 L 4.59375 -13.21875 L 4.59375 -2.8125 L 10.359375 -2.8125 L 10.359375 0 Z M 1.578125 0 "/></g></g></g><g fill="#1d526d" fill-opacity="1"><g transform="translate(68.854687, 69.789978)"><g><path d="M 1.4375 0 L 1.4375 -9.90625 L 4.296875 -9.90625 L 4.296875 0 Z M 1.015625 -13.125 C 1.015625 -13.644531 1.1875 -14.070312 1.53125 -14.40625 C 1.882812 -14.738281 2.332031 -14.90625 2.875 -14.90625 C 3.425781 -14.90625 3.867188 -14.738281 4.203125 -14.40625 C 4.546875 -14.070312 4.71875 -13.644531 4.71875 -13.125 C 4.71875 -12.59375 4.546875 -12.160156 4.203125 -11.828125 C 3.867188 -11.492188 3.425781 -11.328125 2.875 -11.328125 C 2.332031 -11.328125 1.882812 -11.492188 1.53125 -11.828125 C 1.1875 -12.160156 1.015625 -12.59375 1.015625 -13.125 Z M 1.015625 -13.125 "/></g></g></g><g fill="#1d526d" fill-opacity="1"><g transform="translate(74.594148, 69.789978)"><g><path d="M 4.28125 0 L 0.171875 -9.90625 L 3.296875 -9.90625 L 4.421875 -6.796875 L 5.734375 -3.4375 L 7.046875 -6.796875 L 8.171875 -9.90625 L 11.28125 -9.90625 L 7.15625 0 Z M 4.28125 0 "/></g></g></g><g fill="#1d526d" fill-opacity="1"><g transform="translate(86.054185, 69.789978)"><g><path d="M 5.25 0.265625 C 4.34375 0.265625 3.550781 0.117188 2.875 -0.171875 C 2.207031 -0.460938 1.6875 -0.863281 1.3125 -1.375 C 0.9375 -1.894531 0.75 -2.5 0.75 -3.1875 L 3.5625 -3.1875 C 3.582031 -2.78125 3.742188 -2.457031 4.046875 -2.21875 C 4.347656 -1.988281 4.757812 -1.875 5.28125 -1.875 C 5.738281 -1.875 6.09375 -1.957031 6.34375 -2.125 C 6.59375 -2.289062 6.71875 -2.519531 6.71875 -2.8125 C 6.71875 -3.125 6.546875 -3.382812 6.203125 -3.59375 C 5.867188 -3.800781 5.316406 -3.96875 4.546875 -4.09375 C 3.285156 -4.320312 2.359375 -4.6875 1.765625 -5.1875 C 1.179688 -5.695312 0.890625 -6.359375 0.890625 -7.171875 C 0.890625 -8.140625 1.25 -8.878906 1.96875 -9.390625 C 2.695312 -9.910156 3.726562 -10.171875 5.0625 -10.171875 C 6.382812 -10.171875 7.414062 -9.882812 8.15625 -9.3125 C 8.90625 -8.75 9.3125 -7.945312 9.375 -6.90625 L 6.640625 -6.90625 C 6.617188 -7.28125 6.460938 -7.570312 6.171875 -7.78125 C 5.890625 -7.988281 5.515625 -8.09375 5.046875 -8.09375 C 4.609375 -8.09375 4.265625 -8.007812 4.015625 -7.84375 C 3.773438 -7.6875 3.65625 -7.460938 3.65625 -7.171875 C 3.65625 -6.867188 3.816406 -6.628906 4.140625 -6.453125 C 4.460938 -6.285156 5.046875 -6.117188 5.890625 -5.953125 C 8.328125 -5.453125 9.546875 -4.398438 9.546875 -2.796875 C 9.546875 -1.847656 9.164062 -1.097656 8.40625 -0.546875 C 7.644531 -0.00390625 6.59375 0.265625 5.25 0.265625 Z M 5.25 0.265625 "/></g></g></g><g fill="#1d526d" fill-opacity="1"><g transform="translate(96.381436, 69.789978)"><g><path d="M 6.203125 0 C 4.953125 0 3.988281 -0.320312 3.3125 -0.96875 C 2.632812 -1.613281 2.296875 -2.539062 2.296875 -3.75 L 2.296875 -7.5625 L 0.375 -7.5625 L 0.375 -9.90625 L 1.265625 -9.90625 C 1.804688 -9.90625 2.171875 -9.992188 2.359375 -10.171875 C 2.554688 -10.347656 2.695312 -10.6875 2.78125 -11.1875 L 2.9375 -12.46875 L 5.171875 -12.46875 L 5.171875 -9.90625 L 7.890625 -9.90625 L 7.890625 -7.5625 L 5.171875 -7.5625 L 5.171875 -4.1875 C 5.171875 -3.050781 5.722656 -2.484375 6.828125 -2.484375 L 8.015625 -2.484375 L 8.015625 0 Z M 6.203125 0 "/></g></g></g><g fill="#1d526d" fill-opacity="1"><g transform="translate(105.198305, 69.789978)"><g><path d="M 1.46875 3.78125 L 1.46875 1.296875 L 2.609375 1.296875 C 3.191406 1.296875 3.613281 1.203125 3.875 1.015625 C 4.132812 0.835938 4.347656 0.503906 4.515625 0.015625 L 4.625 -0.328125 L 0.171875 -9.90625 L 3.34375 -9.90625 L 6 -3.78125 L 6.90625 -6.296875 L 8.234375 -9.90625 L 11.3125 -9.90625 L 6.890625 1.171875 C 6.628906 1.847656 6.328125 2.375 5.984375 2.75 C 5.640625 3.132812 5.21875 3.398438 4.71875 3.546875 C 4.21875 3.703125 3.582031 3.78125 2.8125 3.78125 Z M 1.46875 3.78125 "/></g></g></g><g fill="#1d526d" fill-opacity="1"><g transform="translate(116.658341, 69.789978)"><g><path d="M 1.4375 0 L 1.4375 -13.96875 L 4.296875 -13.96875 L 4.296875 0 Z M 1.4375 0 "/></g></g></g><g fill="#1d526d" fill-opacity="1"><g transform="translate(122.397802, 69.789978)"><g><path d="M 6.109375 0.265625 C 5.054688 0.265625 4.125 0.046875 3.3125 -0.390625 C 2.5 -0.835938 1.863281 -1.453125 1.40625 -2.234375 C 0.957031 -3.023438 0.734375 -3.9375 0.734375 -4.96875 C 0.734375 -6 0.960938 -6.90625 1.421875 -7.6875 C 1.878906 -8.46875 2.515625 -9.078125 3.328125 -9.515625 C 4.140625 -9.953125 5.082031 -10.171875 6.15625 -10.171875 C 7.289062 -10.171875 8.269531 -9.914062 9.09375 -9.40625 C 9.914062 -8.90625 10.539062 -8.203125 10.96875 -7.296875 C 11.40625 -6.398438 11.59375 -5.347656 11.53125 -4.140625 L 3.59375 -4.140625 C 3.726562 -3.453125 4.023438 -2.925781 4.484375 -2.5625 C 4.953125 -2.207031 5.515625 -2.03125 6.171875 -2.03125 C 6.648438 -2.03125 7.085938 -2.117188 7.484375 -2.296875 C 7.878906 -2.484375 8.195312 -2.742188 8.4375 -3.078125 L 11.34375 -3.078125 C 10.914062 -2.035156 10.242188 -1.21875 9.328125 -0.625 C 8.410156 -0.03125 7.335938 0.265625 6.109375 0.265625 Z M 3.609375 -5.953125 L 8.765625 -5.953125 C 8.597656 -6.554688 8.289062 -7.03125 7.84375 -7.375 C 7.394531 -7.71875 6.835938 -7.890625 6.171875 -7.890625 C 5.546875 -7.890625 5 -7.71875 4.53125 -7.375 C 4.070312 -7.03125 3.765625 -6.554688 3.609375 -5.953125 Z M 3.609375 -5.953125 "/></g></g></g><g fill="#1d526d" fill-opacity="1"><g transform="translate(134.650791, 69.789978)"><g/></g></g><g fill="#1d526d" fill-opacity="1"><g transform="translate(139.087543, 69.789978)"><g><path d="M 9.765625 0 L 9.765625 -5.328125 L 4.59375 -5.328125 L 4.59375 0 L 1.578125 0 L 1.578125 -13.21875 L 4.59375 -13.21875 L 4.59375 -8.140625 L 9.765625 -8.140625 L 9.765625 -13.21875 L 12.765625 -13.21875 L 12.765625 0 Z M 9.765625 0 "/></g></g></g><g fill="#1d526d" fill-opacity="1"><g transform="translate(153.436192, 69.789978)"><g><path d="M 6.296875 0.265625 C 5.203125 0.265625 4.238281 0.046875 3.40625 -0.390625 C 2.570312 -0.835938 1.914062 -1.453125 1.4375 -2.234375 C 0.96875 -3.023438 0.734375 -3.9375 0.734375 -4.96875 C 0.734375 -6 0.96875 -6.90625 1.4375 -7.6875 C 1.914062 -8.46875 2.570312 -9.078125 3.40625 -9.515625 C 4.238281 -9.953125 5.203125 -10.171875 6.296875 -10.171875 C 7.398438 -10.171875 8.367188 -9.953125 9.203125 -9.515625 C 10.035156 -9.078125 10.6875 -8.46875 11.15625 -7.6875 C 11.625 -6.90625 11.859375 -6 11.859375 -4.96875 C 11.859375 -3.9375 11.625 -3.023438 11.15625 -2.234375 C 10.6875 -1.453125 10.035156 -0.835938 9.203125 -0.390625 C 8.367188 0.046875 7.398438 0.265625 6.296875 0.265625 Z M 3.5625 -4.96875 C 3.5625 -4.15625 3.816406 -3.488281 4.328125 -2.96875 C 4.835938 -2.457031 5.492188 -2.203125 6.296875 -2.203125 C 7.109375 -2.203125 7.765625 -2.457031 8.265625 -2.96875 C 8.765625 -3.488281 9.015625 -4.15625 9.015625 -4.96875 C 9.015625 -5.78125 8.765625 -6.441406 8.265625 -6.953125 C 7.765625 -7.460938 7.109375 -7.71875 6.296875 -7.71875 C 5.492188 -7.71875 4.835938 -7.460938 4.328125 -6.953125 C 3.816406 -6.441406 3.5625 -5.78125 3.5625 -4.96875 Z M 3.5625 -4.96875 "/></g></g></g><g fill="#1d526d" fill-opacity="1"><g transform="translate(166.02902, 69.789978)"><g><path d="M 1.4375 0 L 1.4375 -9.90625 L 3.5625 -9.90625 L 3.84375 -8.890625 C 4.207031 -9.316406 4.648438 -9.632812 5.171875 -9.84375 C 5.703125 -10.0625 6.28125 -10.171875 6.90625 -10.171875 C 8.363281 -10.171875 9.453125 -9.628906 10.171875 -8.546875 C 10.578125 -9.066406 11.082031 -9.46875 11.6875 -9.75 C 12.300781 -10.03125 12.984375 -10.171875 13.734375 -10.171875 C 15.003906 -10.171875 16.015625 -9.773438 16.765625 -8.984375 C 17.515625 -8.203125 17.890625 -7.132812 17.890625 -5.78125 L 17.890625 0 L 15.03125 0 L 15.03125 -5.4375 C 15.03125 -6.144531 14.851562 -6.703125 14.5 -7.109375 C 14.15625 -7.515625 13.6875 -7.71875 13.09375 -7.71875 C 12.476562 -7.71875 11.988281 -7.503906 11.625 -7.078125 C 11.257812 -6.648438 11.078125 -6.078125 11.078125 -5.359375 L 11.078125 0 L 8.25 0 L 8.25 -5.4375 C 8.25 -6.144531 8.070312 -6.703125 7.71875 -7.109375 C 7.375 -7.515625 6.910156 -7.71875 6.328125 -7.71875 C 5.703125 -7.71875 5.207031 -7.503906 4.84375 -7.078125 C 4.476562 -6.648438 4.296875 -6.078125 4.296875 -5.359375 L 4.296875 0 Z M 1.4375 0 "/></g></g></g><g fill="#1d526d" fill-opacity="1"><g transform="translate(185.173147, 69.789978)"><g><path d="M 6.109375 0.265625 C 5.054688 0.265625 4.125 0.046875 3.3125 -0.390625 C 2.5 -0.835938 1.863281 -1.453125 1.40625 -2.234375 C 0.957031 -3.023438 0.734375 -3.9375 0.734375 -4.96875 C 0.734375 -6 0.960938 -6.90625 1.421875 -7.6875 C 1.878906 -8.46875 2.515625 -9.078125 3.328125 -9.515625 C 4.140625 -9.953125 5.082031 -10.171875 6.15625 -10.171875 C 7.289062 -10.171875 8.269531 -9.914062 9.09375 -9.40625 C 9.914062 -8.90625 10.539062 -8.203125 10.96875 -7.296875 C 11.40625 -6.398438 11.59375 -5.347656 11.53125 -4.140625 L 3.59375 -4.140625 C 3.726562 -3.453125 4.023438 -2.925781 4.484375 -2.5625 C 4.953125 -2.207031 5.515625 -2.03125 6.171875 -2.03125 C 6.648438 -2.03125 7.085938 -2.117188 7.484375 -2.296875 C 7.878906 -2.484375 8.195312 -2.742188 8.4375 -3.078125 L 11.34375 -3.078125 C 10.914062 -2.035156 10.242188 -1.21875 9.328125 -0.625 C 8.410156 -0.03125 7.335938 0.265625 6.109375 0.265625 Z M 3.609375 -5.953125 L 8.765625 -5.953125 C 8.597656 -6.554688 8.289062 -7.03125 7.84375 -7.375 C 7.394531 -7.71875 6.835938 -7.890625 6.171875 -7.890625 C 5.546875 -7.890625 5 -7.71875 4.53125 -7.375 C 4.070312 -7.03125 3.765625 -6.554688 3.609375 -5.953125 Z M 3.609375 -5.953125 "/></g></g></g><g fill="#1d526d" fill-opacity="1"><g transform="translate(197.426135, 69.789978)"><g><path d="M 5.25 0.265625 C 4.34375 0.265625 3.550781 0.117188 2.875 -0.171875 C 2.207031 -0.460938 1.6875 -0.863281 1.3125 -1.375 C 0.9375 -1.894531 0.75 -2.5 0.75 -3.1875 L 3.5625 -3.1875 C 3.582031 -2.78125 3.742188 -2.457031 4.046875 -2.21875 C 4.347656 -1.988281 4.757812 -1.875 5.28125 -1.875 C 5.738281 -1.875 6.09375 -1.957031 6.34375 -2.125 C 6.59375 -2.289062 6.71875 -2.519531 6.71875 -2.8125 C 6.71875 -3.125 6.546875 -3.382812 6.203125 -3.59375 C 5.867188 -3.800781 5.316406 -3.96875 4.546875 -4.09375 C 3.285156 -4.320312 2.359375 -4.6875 1.765625 -5.1875 C 1.179688 -5.695312 0.890625 -6.359375 0.890625 -7.171875 C 0.890625 -8.140625 1.25 -8.878906 1.96875 -9.390625 C 2.695312 -9.910156 3.726562 -10.171875 5.0625 -10.171875 C 6.382812 -10.171875 7.414062 -9.882812 8.15625 -9.3125 C 8.90625 -8.75 9.3125 -7.945312 9.375 -6.90625 L 6.640625 -6.90625 C 6.617188 -7.28125 6.460938 -7.570312 6.171875 -7.78125 C 5.890625 -7.988281 5.515625 -8.09375 5.046875 -8.09375 C 4.609375 -8.09375 4.265625 -8.007812 4.015625 -7.84375 C 3.773438 -7.6875 3.65625 -7.460938 3.65625 -7.171875 C 3.65625 -6.867188 3.816406 -6.628906 4.140625 -6.453125 C 4.460938 -6.285156 5.046875 -6.117188 5.890625 -5.953125 C 8.328125 -5.453125 9.546875 -4.398438 9.546875 -2.796875 C 9.546875 -1.847656 9.164062 -1.097656 8.40625 -0.546875 C 7.644531 -0.00390625 6.59375 0.265625 5.25 0.265625 Z M 5.25 0.265625 "/></g></g></g><g fill="#000000" fill-opacity="1"><g transform="translate(70.508467, 80.355264)"><g><path d="M 0.640625 0 L 0.640625 -4.390625 L 1.1875 -4.390625 L 1.1875 0 Z M 0.640625 0 "/></g></g></g><g fill="#000000" fill-opacity="1"><g transform="translate(74.691365, 80.355264)"><g><path d="M 0.640625 0 L 0.640625 -4.390625 L 1.15625 -4.390625 L 3.578125 -0.953125 L 3.578125 -4.390625 L 4.125 -4.390625 L 4.125 0 L 3.609375 0 L 1.1875 -3.4375 L 1.1875 0 Z M 0.640625 0 "/></g></g></g><g fill="#000000" fill-opacity="1"><g transform="translate(81.809148, 80.355264)"><g><path d="M 1.703125 0 L 1.703125 -3.859375 L 0.21875 -3.859375 L 0.21875 -4.390625 L 3.734375 -4.390625 L 3.734375 -3.859375 L 2.25 -3.859375 L 2.25 0 Z M 1.703125 0 "/></g></g></g><g fill="#000000" fill-opacity="1"><g transform="translate(88.111686, 80.355264)"><g><path d="M 0.640625 0 L 0.640625 -4.390625 L 3.296875 -4.390625 L 3.296875 -3.875 L 1.1875 -3.875 L 1.1875 -2.484375 L 3.140625 -2.484375 L 3.140625 -1.984375 L 1.1875 -1.984375 L 1.1875 -0.515625 L 3.375 -0.515625 L 3.375 0 Z M 0.640625 0 "/></g></g></g><g fill="#000000" fill-opacity="1"><g transform="translate(94.2449, 80.355264)"><g><path d="M 0.640625 0 L 0.640625 -4.390625 L 2.3125 -4.390625 C 2.613281 -4.390625 2.878906 -4.332031 3.109375 -4.21875 C 3.335938 -4.101562 3.515625 -3.941406 3.640625 -3.734375 C 3.765625 -3.523438 3.828125 -3.269531 3.828125 -2.96875 C 3.828125 -2.613281 3.734375 -2.320312 3.546875 -2.09375 C 3.359375 -1.863281 3.101562 -1.707031 2.78125 -1.625 L 3.890625 0 L 3.234375 0 L 2.15625 -1.578125 L 1.1875 -1.578125 L 1.1875 0 Z M 1.1875 -2.09375 L 2.25 -2.09375 C 2.570312 -2.09375 2.820312 -2.171875 3 -2.328125 C 3.175781 -2.484375 3.265625 -2.695312 3.265625 -2.96875 C 3.265625 -3.25 3.175781 -3.46875 3 -3.625 C 2.820312 -3.78125 2.570312 -3.859375 2.25 -3.859375 L 1.1875 -3.859375 Z M 1.1875 -2.09375 "/></g></g></g><g fill="#000000" fill-opacity="1"><g transform="translate(100.867261, 80.355264)"><g><path d="M 0.640625 0 L 0.640625 -4.390625 L 1.1875 -4.390625 L 1.1875 0 Z M 0.640625 0 "/></g></g></g><g fill="#000000" fill-opacity="1"><g transform="translate(105.050161, 80.355264)"><g><path d="M 2.625 0.078125 C 2.1875 0.078125 1.796875 -0.015625 1.453125 -0.203125 C 1.109375 -0.398438 0.835938 -0.671875 0.640625 -1.015625 C 0.453125 -1.359375 0.359375 -1.75 0.359375 -2.1875 C 0.359375 -2.632812 0.453125 -3.03125 0.640625 -3.375 C 0.835938 -3.71875 1.109375 -3.984375 1.453125 -4.171875 C 1.796875 -4.367188 2.1875 -4.46875 2.625 -4.46875 C 3.070312 -4.46875 3.46875 -4.367188 3.8125 -4.171875 C 4.15625 -3.984375 4.421875 -3.71875 4.609375 -3.375 C 4.804688 -3.03125 4.90625 -2.632812 4.90625 -2.1875 C 4.90625 -1.75 4.804688 -1.359375 4.609375 -1.015625 C 4.421875 -0.671875 4.15625 -0.398438 3.8125 -0.203125 C 3.46875 -0.015625 3.070312 0.078125 2.625 0.078125 Z M 0.921875 -2.1875 C 0.921875 -1.851562 0.992188 -1.554688 1.140625 -1.296875 C 1.285156 -1.035156 1.484375 -0.832031 1.734375 -0.6875 C 1.992188 -0.539062 2.289062 -0.46875 2.625 -0.46875 C 2.96875 -0.46875 3.265625 -0.539062 3.515625 -0.6875 C 3.773438 -0.832031 3.972656 -1.035156 4.109375 -1.296875 C 4.253906 -1.554688 4.328125 -1.851562 4.328125 -2.1875 C 4.328125 -2.53125 4.253906 -2.832031 4.109375 -3.09375 C 3.972656 -3.351562 3.773438 -3.554688 3.515625 -3.703125 C 3.265625 -3.847656 2.96875 -3.921875 2.625 -3.921875 C 2.289062 -3.921875 1.992188 -3.847656 1.734375 -3.703125 C 1.484375 -3.554688 1.285156 -3.351562 1.140625 -3.09375 C 0.992188 -2.832031 0.921875 -2.53125 0.921875 -2.1875 Z M 0.921875 -2.1875 "/></g></g></g><g fill="#000000" fill-opacity="1"><g transform="translate(112.669635, 80.355264)"><g><path d="M 0.640625 0 L 0.640625 -4.390625 L 2.3125 -4.390625 C 2.613281 -4.390625 2.878906 -4.332031 3.109375 -4.21875 C 3.335938 -4.101562 3.515625 -3.941406 3.640625 -3.734375 C 3.765625 -3.523438 3.828125 -3.269531 3.828125 -2.96875 C 3.828125 -2.613281 3.734375 -2.320312 3.546875 -2.09375 C 3.359375 -1.863281 3.101562 -1.707031 2.78125 -1.625 L 3.890625 0 L 3.234375 0 L 2.15625 -1.578125 L 1.1875 -1.578125 L 1.1875 0 Z M 1.1875 -2.09375 L 2.25 -2.09375 C 2.570312 -2.09375 2.820312 -2.171875 3 -2.328125 C 3.175781 -2.484375 3.265625 -2.695312 3.265625 -2.96875 C 3.265625 -3.25 3.175781 -3.46875 3 -3.625 C 2.820312 -3.78125 2.570312 -3.859375 2.25 -3.859375 L 1.1875 -3.859375 Z M 1.1875 -2.09375 "/></g></g></g><g fill="#000000" fill-opacity="1"><g transform="translate(119.291998, 80.355264)"><g><path d="M 2.09375 0.078125 C 1.75 0.078125 1.445312 0.0195312 1.1875 -0.09375 C 0.925781 -0.21875 0.722656 -0.382812 0.578125 -0.59375 C 0.441406 -0.8125 0.375 -1.0625 0.375 -1.34375 L 0.921875 -1.34375 C 0.929688 -1.0625 1.039062 -0.835938 1.25 -0.671875 C 1.46875 -0.515625 1.75 -0.4375 2.09375 -0.4375 C 2.40625 -0.4375 2.648438 -0.5 2.828125 -0.625 C 3.015625 -0.75 3.109375 -0.921875 3.109375 -1.140625 C 3.109375 -1.335938 3.019531 -1.5 2.84375 -1.625 C 2.664062 -1.75 2.378906 -1.859375 1.984375 -1.953125 C 1.441406 -2.078125 1.046875 -2.238281 0.796875 -2.4375 C 0.546875 -2.644531 0.421875 -2.921875 0.421875 -3.265625 C 0.421875 -3.628906 0.5625 -3.921875 0.84375 -4.140625 C 1.125 -4.359375 1.507812 -4.46875 2 -4.46875 C 2.488281 -4.46875 2.875 -4.34375 3.15625 -4.09375 C 3.445312 -3.851562 3.59375 -3.519531 3.59375 -3.09375 L 3.046875 -3.09375 C 3.046875 -3.351562 2.945312 -3.554688 2.75 -3.703125 C 2.5625 -3.859375 2.3125 -3.9375 2 -3.9375 C 1.675781 -3.9375 1.425781 -3.875 1.25 -3.75 C 1.070312 -3.632812 0.984375 -3.472656 0.984375 -3.265625 C 0.984375 -3.078125 1.066406 -2.921875 1.234375 -2.796875 C 1.398438 -2.679688 1.695312 -2.570312 2.125 -2.46875 C 2.6875 -2.320312 3.082031 -2.144531 3.3125 -1.9375 C 3.550781 -1.738281 3.671875 -1.476562 3.671875 -1.15625 C 3.671875 -0.769531 3.523438 -0.46875 3.234375 -0.25 C 2.953125 -0.03125 2.570312 0.078125 2.09375 0.078125 Z M 2.09375 0.078125 "/></g></g></g><g fill="#000000" fill-opacity="1"><g transform="translate(125.701142, 80.355264)"><g/></g></g><g fill="#000000" fill-opacity="1"><g transform="translate(129.608114, 80.355264)"><g><path d="M 1.828125 0.078125 C 1.359375 0.078125 0.992188 -0.0234375 0.734375 -0.234375 C 0.472656 -0.441406 0.34375 -0.734375 0.34375 -1.109375 C 0.34375 -1.367188 0.410156 -1.597656 0.546875 -1.796875 C 0.691406 -1.992188 0.921875 -2.164062 1.234375 -2.3125 C 1.054688 -2.5 0.921875 -2.679688 0.828125 -2.859375 C 0.734375 -3.046875 0.6875 -3.238281 0.6875 -3.4375 C 0.6875 -3.632812 0.738281 -3.8125 0.84375 -3.96875 C 0.945312 -4.125 1.09375 -4.242188 1.28125 -4.328125 C 1.476562 -4.421875 1.703125 -4.46875 1.953125 -4.46875 C 2.210938 -4.46875 2.4375 -4.421875 2.625 -4.328125 C 2.820312 -4.234375 2.972656 -4.101562 3.078125 -3.9375 C 3.191406 -3.78125 3.25 -3.597656 3.25 -3.390625 C 3.25 -2.835938 2.875 -2.414062 2.125 -2.125 L 3.109375 -1.125 C 3.253906 -1.394531 3.332031 -1.726562 3.34375 -2.125 L 3.859375 -2.125 C 3.847656 -1.550781 3.722656 -1.085938 3.484375 -0.734375 L 4.203125 0 L 3.5 0 L 3.15625 -0.34375 C 2.8125 -0.0625 2.367188 0.078125 1.828125 0.078125 Z M 0.859375 -1.109375 C 0.859375 -0.898438 0.945312 -0.734375 1.125 -0.609375 C 1.300781 -0.484375 1.535156 -0.421875 1.828125 -0.421875 C 2.210938 -0.421875 2.53125 -0.523438 2.78125 -0.734375 L 1.59375 -1.9375 C 1.101562 -1.738281 0.859375 -1.460938 0.859375 -1.109375 Z M 1.203125 -3.4375 C 1.203125 -3.320312 1.242188 -3.191406 1.328125 -3.046875 C 1.410156 -2.910156 1.550781 -2.734375 1.75 -2.515625 C 2.09375 -2.640625 2.34375 -2.769531 2.5 -2.90625 C 2.65625 -3.050781 2.734375 -3.210938 2.734375 -3.390625 C 2.734375 -3.566406 2.660156 -3.707031 2.515625 -3.8125 C 2.378906 -3.925781 2.191406 -3.984375 1.953125 -3.984375 C 1.722656 -3.984375 1.539062 -3.929688 1.40625 -3.828125 C 1.269531 -3.734375 1.203125 -3.601562 1.203125 -3.4375 Z M 1.203125 -3.4375 "/></g></g></g><g fill="#000000" fill-opacity="1"><g transform="translate(136.406066, 80.355264)"><g/></g></g><g fill="#000000" fill-opacity="1"><g transform="translate(140.313039, 80.355264)"><g><path d="M 0.640625 0 L 0.640625 -4.390625 L 3.296875 -4.390625 L 3.296875 -3.875 L 1.1875 -3.875 L 1.1875 -2.484375 L 3.140625 -2.484375 L 3.140625 -1.984375 L 1.1875 -1.984375 L 1.1875 -0.515625 L 3.375 -0.515625 L 3.375 0 Z M 0.640625 0 "/></g></g></g><g fill="#000000" fill-opacity="1"><g transform="translate(146.446256, 80.355264)"><g><path d="M 0.234375 0 L 1.796875 -2.25 L 0.296875 -4.390625 L 0.953125 -4.390625 L 2.15625 -2.65625 L 2.53125 -3.203125 L 3.34375 -4.390625 L 3.984375 -4.390625 L 2.5 -2.25 L 4.0625 0 L 3.421875 0 L 2.515625 -1.296875 L 2.15625 -1.828125 L 0.890625 0 Z M 0.234375 0 "/></g></g></g><g fill="#000000" fill-opacity="1"><g transform="translate(153.106249, 80.355264)"><g><path d="M 1.703125 0 L 1.703125 -3.859375 L 0.21875 -3.859375 L 0.21875 -4.390625 L 3.734375 -4.390625 L 3.734375 -3.859375 L 2.25 -3.859375 L 2.25 0 Z M 1.703125 0 "/></g></g></g><g fill="#000000" fill-opacity="1"><g transform="translate(159.408787, 80.355264)"><g><path d="M 0.640625 0 L 0.640625 -4.390625 L 3.296875 -4.390625 L 3.296875 -3.875 L 1.1875 -3.875 L 1.1875 -2.484375 L 3.140625 -2.484375 L 3.140625 -1.984375 L 1.1875 -1.984375 L 1.1875 -0.515625 L 3.375 -0.515625 L 3.375 0 Z M 0.640625 0 "/></g></g></g><g fill="#000000" fill-opacity="1"><g transform="translate(165.542004, 80.355264)"><g><path d="M 0.640625 0 L 0.640625 -4.390625 L 2.3125 -4.390625 C 2.613281 -4.390625 2.878906 -4.332031 3.109375 -4.21875 C 3.335938 -4.101562 3.515625 -3.941406 3.640625 -3.734375 C 3.765625 -3.523438 3.828125 -3.269531 3.828125 -2.96875 C 3.828125 -2.613281 3.734375 -2.320312 3.546875 -2.09375 C 3.359375 -1.863281 3.101562 -1.707031 2.78125 -1.625 L 3.890625 0 L 3.234375 0 L 2.15625 -1.578125 L 1.1875 -1.578125 L 1.1875 0 Z M 1.1875 -2.09375 L 2.25 -2.09375 C 2.570312 -2.09375 2.820312 -2.171875 3 -2.328125 C 3.175781 -2.484375 3.265625 -2.695312 3.265625 -2.96875 C 3.265625 -3.25 3.175781 -3.46875 3 -3.625 C 2.820312 -3.78125 2.570312 -3.859375 2.25 -3.859375 L 1.1875 -3.859375 Z M 1.1875 -2.09375 "/></g></g></g><g fill="#000000" fill-opacity="1"><g transform="translate(172.164366, 80.355264)"><g><path d="M 0.640625 0 L 0.640625 -4.390625 L 1.1875 -4.390625 L 1.1875 0 Z M 0.640625 0 "/></g></g></g><g fill="#000000" fill-opacity="1"><g transform="translate(176.347266, 80.355264)"><g><path d="M 2.625 0.078125 C 2.1875 0.078125 1.796875 -0.015625 1.453125 -0.203125 C 1.109375 -0.398438 0.835938 -0.671875 0.640625 -1.015625 C 0.453125 -1.359375 0.359375 -1.75 0.359375 -2.1875 C 0.359375 -2.632812 0.453125 -3.03125 0.640625 -3.375 C 0.835938 -3.71875 1.109375 -3.984375 1.453125 -4.171875 C 1.796875 -4.367188 2.1875 -4.46875 2.625 -4.46875 C 3.070312 -4.46875 3.46875 -4.367188 3.8125 -4.171875 C 4.15625 -3.984375 4.421875 -3.71875 4.609375 -3.375 C 4.804688 -3.03125 4.90625 -2.632812 4.90625 -2.1875 C 4.90625 -1.75 4.804688 -1.359375 4.609375 -1.015625 C 4.421875 -0.671875 4.15625 -0.398438 3.8125 -0.203125 C 3.46875 -0.015625 3.070312 0.078125 2.625 0.078125 Z M 0.921875 -2.1875 C 0.921875 -1.851562 0.992188 -1.554688 1.140625 -1.296875 C 1.285156 -1.035156 1.484375 -0.832031 1.734375 -0.6875 C 1.992188 -0.539062 2.289062 -0.46875 2.625 -0.46875 C 2.96875 -0.46875 3.265625 -0.539062 3.515625 -0.6875 C 3.773438 -0.832031 3.972656 -1.035156 4.109375 -1.296875 C 4.253906 -1.554688 4.328125 -1.851562 4.328125 -2.1875 C 4.328125 -2.53125 4.253906 -2.832031 4.109375 -3.09375 C 3.972656 -3.351562 3.773438 -3.554688 3.515625 -3.703125 C 3.265625 -3.847656 2.96875 -3.921875 2.625 -3.921875 C 2.289062 -3.921875 1.992188 -3.847656 1.734375 -3.703125 C 1.484375 -3.554688 1.285156 -3.351562 1.140625 -3.09375 C 0.992188 -2.832031 0.921875 -2.53125 0.921875 -2.1875 Z M 0.921875 -2.1875 "/></g></g></g><g fill="#000000" fill-opacity="1"><g transform="translate(183.96674, 80.355264)"><g><path d="M 0.640625 0 L 0.640625 -4.390625 L 2.3125 -4.390625 C 2.613281 -4.390625 2.878906 -4.332031 3.109375 -4.21875 C 3.335938 -4.101562 3.515625 -3.941406 3.640625 -3.734375 C 3.765625 -3.523438 3.828125 -3.269531 3.828125 -2.96875 C 3.828125 -2.613281 3.734375 -2.320312 3.546875 -2.09375 C 3.359375 -1.863281 3.101562 -1.707031 2.78125 -1.625 L 3.890625 0 L 3.234375 0 L 2.15625 -1.578125 L 1.1875 -1.578125 L 1.1875 0 Z M 1.1875 -2.09375 L 2.25 -2.09375 C 2.570312 -2.09375 2.820312 -2.171875 3 -2.328125 C 3.175781 -2.484375 3.265625 -2.695312 3.265625 -2.96875 C 3.265625 -3.25 3.175781 -3.46875 3 -3.625 C 2.820312 -3.78125 2.570312 -3.859375 2.25 -3.859375 L 1.1875 -3.859375 Z M 1.1875 -2.09375 "/></g></g></g><g fill="#000000" fill-opacity="1"><g transform="translate(190.589103, 80.355264)"><g><path d="M 2.09375 0.078125 C 1.75 0.078125 1.445312 0.0195312 1.1875 -0.09375 C 0.925781 -0.21875 0.722656 -0.382812 0.578125 -0.59375 C 0.441406 -0.8125 0.375 -1.0625 0.375 -1.34375 L 0.921875 -1.34375 C 0.929688 -1.0625 1.039062 -0.835938 1.25 -0.671875 C 1.46875 -0.515625 1.75 -0.4375 2.09375 -0.4375 C 2.40625 -0.4375 2.648438 -0.5 2.828125 -0.625 C 3.015625 -0.75 3.109375 -0.921875 3.109375 -1.140625 C 3.109375 -1.335938 3.019531 -1.5 2.84375 -1.625 C 2.664062 -1.75 2.378906 -1.859375 1.984375 -1.953125 C 1.441406 -2.078125 1.046875 -2.238281 0.796875 -2.4375 C 0.546875 -2.644531 0.421875 -2.921875 0.421875 -3.265625 C 0.421875 -3.628906 0.5625 -3.921875 0.84375 -4.140625 C 1.125 -4.359375 1.507812 -4.46875 2 -4.46875 C 2.488281 -4.46875 2.875 -4.34375 3.15625 -4.09375 C 3.445312 -3.851562 3.59375 -3.519531 3.59375 -3.09375 L 3.046875 -3.09375 C 3.046875 -3.351562 2.945312 -3.554688 2.75 -3.703125 C 2.5625 -3.859375 2.3125 -3.9375 2 -3.9375 C 1.675781 -3.9375 1.425781 -3.875 1.25 -3.75 C 1.070312 -3.632812 0.984375 -3.472656 0.984375 -3.265625 C 0.984375 -3.078125 1.066406 -2.921875 1.234375 -2.796875 C 1.398438 -2.679688 1.695312 -2.570312 2.125 -2.46875 C 2.6875 -2.320312 3.082031 -2.144531 3.3125 -1.9375 C 3.550781 -1.738281 3.671875 -1.476562 3.671875 -1.15625 C 3.671875 -0.769531 3.523438 -0.46875 3.234375 -0.25 C 2.953125 -0.03125 2.570312 0.078125 2.09375 0.078125 Z M 2.09375 0.078125 "/></g></g></g></svg>