<svg xmlns="http://www.w3.org/2000/svg" viewBox="0 0 1920 1080"><g id="Dark_BG" data-name="Dark BG"><g id="style_2" data-name="style 2"><path d="M809.94,337.8l214,370.67c24.35,42.18-6.09,94.91-54.8,94.91H533.73c-48.71,0-79.15-52.73-54.79-94.91l214-370.67C718.94,292.76,783.94,292.76,809.94,337.8Z" style="fill:#4169e1;stroke:#4169e1;stroke-miterlimit:10;stroke-width:17.00857578513722px"/><path d="M853,531.63a24.77,24.77,0,0,1-24.77,24.77H741.47q-10.11,0-15.25,5.05t-5.14,14.77V688.09a24.78,24.78,0,0,1-24.78,24.77h0a24.77,24.77,0,0,1-24.77-24.77V576.22a74.79,74.79,0,0,1,3.24-22.87,65.64,65.64,0,0,1,8.67-17.82,60.15,60.15,0,0,1,12.48-13.14,72.37,72.37,0,0,1,14.77-8.87,76.92,76.92,0,0,1,15.63-5,74.52,74.52,0,0,1,14.77-1.62h87.09A24.78,24.78,0,0,1,853,531.63Z" style="fill:#fff"/><path d="M1233.88,716.35l217.71-377.08c24.36-42.18-6.08-94.91-54.79-94.91H961.38c-48.71,0-79.15,52.73-54.8,94.91l217.71,377.08C1148.64,758.54,1209.53,758.54,1233.88,716.35Z" style="fill:#fabb04;stroke:#fabb04;stroke-miterlimit:10;stroke-width:17.00857578513722px"/><path d="M1276.8,479.42a68,68,0,0,1-2.9,20.57,60,60,0,0,1-7.69,16,52,52,0,0,1-11.09,11.78,64.49,64.49,0,0,1-13.23,7.94,67.55,67.55,0,0,1-14,4.52,66.67,66.67,0,0,1-13.4,1.45h-80a71.3,71.3,0,0,1-20.15-3.24,59.18,59.18,0,0,1-20.22-10.67,59.82,59.82,0,0,1-15.54-19.29q-6.22-11.85-6.23-29.1V419.33q0-17.06,6.23-28.93a58.91,58.91,0,0,1,35.76-30,71.3,71.3,0,0,1,20.15-3.24h80q17.07,0,29,6.15a57.58,57.58,0,0,1,19.29,15.44A61.48,61.48,0,0,1,1273.47,399a70,70,0,0,1,3.33,20.31Zm-44.38-59.74q0-9.23-4.61-13.66c-3.08-3-7.51-4.44-13.32-4.44h-79.71q-8.88,0-13.49,4.53t-4.6,13.22v60.09q0,8.7,4.6,13.31t13.49,4.61h79.71q9,0,13.49-4.61t4.44-13.31Z" style="fill:#fff"/><path d="M1662.22,333.67l217.71,377.09c24.35,42.18-6.09,94.91-54.8,94.91H1389.71c-48.71,0-79.15-52.73-54.8-94.91l217.71-377.09C1577,291.49,1637.86,291.49,1662.22,333.67Z" style="fill:#ea4335;stroke:red;stroke-miterlimit:10;stroke-width:1.1339050523424814px"/><path d="M1646.11,632.5l56.25,63a10.31,10.31,0,0,1-7.69,17.18h-33.42a10.32,10.32,0,0,1-7.72-3.48l-36.22-40.87a10.32,10.32,0,0,0-15.43,0l-36.22,40.87a10.32,10.32,0,0,1-7.72,3.48h-33.07a10.32,10.32,0,0,1-7.72-17.15l55.75-63a10.31,10.31,0,0,0,0-13.63l-57.16-65.06a10.31,10.31,0,0,1,7.75-17.11h33.41a10.27,10.27,0,0,1,7.72,3.48l37.2,42.06a10.31,10.31,0,0,0,15.47,0l37-42a10.27,10.27,0,0,1,7.74-3.5h33.6a10.3,10.3,0,0,1,7.73,17.12l-57.29,65A10.31,10.31,0,0,0,1646.11,632.5Z" style="fill:#fff"/><path d="M374.38,716.77,592.09,339.69c24.35-42.19-6.09-94.92-54.8-94.92H101.87c-48.71,0-79.15,52.73-54.8,94.92L264.78,716.77C289.14,759,350,759,374.38,716.77Z" style="fill:#3cb371;stroke:#3cb371;stroke-miterlimit:10;stroke-width:17.00857578513722px"/><path d="M329.83,586.23H310.19a15.12,15.12,0,0,1-15.13-15.13V372.31a15.12,15.12,0,0,1,15.13-15.13h19.64A15.12,15.12,0,0,1,345,372.31V571.1A15.12,15.12,0,0,1,329.83,586.23Z" style="fill:#fff"/></g></g></svg>