<svg xmlns="http://www.w3.org/2000/svg" viewBox="0 0 950 500"><g id="Powered_by_IE" data-name="Powered by IE"><path d="M511.62,191,692.07,295.19a24.66,24.66,0,0,1,0,42.7L511.62,442.07a24.65,24.65,0,0,1-37-21.35V212.36A24.65,24.65,0,0,1,511.62,191Z" style="fill:none;stroke:#4169e1;stroke-miterlimit:10;stroke-width:10.32607189208951px"/><path d="M782.66,338.94h-3.61a9,9,0,0,0-6.39,15.43l2.55,2.56a9,9,0,0,1,0,12.78l-23.72,23.72a9,9,0,0,1-12.79,0l-2.55-2.55a9,9,0,0,0-15.44,6.39v3.62a9,9,0,0,1-9,9H678.12a9,9,0,0,1-9-9v-3.62a9,9,0,0,0-15.43-6.39l-2.56,2.55a9,9,0,0,1-12.79,0l-23.72-23.72a9,9,0,0,1,0-12.78l2.56-2.56a9,9,0,0,0-6.4-15.43h-3.61a9,9,0,0,1-9-9.05V296.35a9,9,0,0,1,9-9h3.61a9,9,0,0,0,6.4-15.44l-2.56-2.55a9,9,0,0,1,0-12.79l23.72-23.72a9,9,0,0,1,12.79,0l2.56,2.55A9,9,0,0,0,669.08,229v-3.61a9,9,0,0,1,9-9.05h33.55a9,9,0,0,1,9,9.05V229a9,9,0,0,0,15.44,6.39l2.55-2.55a9,9,0,0,1,12.79,0l23.72,23.72a9,9,0,0,1,0,12.79l-2.55,2.55a9,9,0,0,0,6.39,15.44h3.61a9,9,0,0,1,9,9v33.54A9,9,0,0,1,782.66,338.94ZM694.9,271.82a41.95,41.95,0,1,0,42,41.95A41.95,41.95,0,0,0,694.9,271.82Z" style="fill:#ea4335"/><path d="M813.7,76.88l-55.13,95.5a13,13,0,0,1-22.6,0l-55.14-95.5a13,13,0,0,1,11.3-19.57H802.4A13,13,0,0,1,813.7,76.88Z" style="fill:none;stroke:#4169e1;stroke-miterlimit:10;stroke-width:5.46478780792501px"/><path d="M734.13,220.32v-1.91A4.78,4.78,0,0,0,726,215l-1.35,1.35a4.79,4.79,0,0,1-6.77,0l-12.55-12.55a4.79,4.79,0,0,1,0-6.77l1.35-1.35a4.79,4.79,0,0,0-3.39-8.17h-1.91a4.78,4.78,0,0,1-4.78-4.79V165a4.78,4.78,0,0,1,4.78-4.78h1.91a4.79,4.79,0,0,0,3.39-8.17l-1.35-1.36a4.77,4.77,0,0,1,0-6.76l12.55-12.56a4.8,4.8,0,0,1,6.77,0l1.35,1.36a4.79,4.79,0,0,0,8.17-3.39v-1.91a4.78,4.78,0,0,1,4.78-4.78h17.76a4.78,4.78,0,0,1,4.78,4.78v1.91a4.79,4.79,0,0,0,8.17,3.39l1.35-1.36a4.8,4.8,0,0,1,6.77,0l12.55,12.56a4.77,4.77,0,0,1,0,6.76l-1.35,1.36a4.79,4.79,0,0,0,3.38,8.17h1.92A4.78,4.78,0,0,1,799,165v17.75a4.78,4.78,0,0,1-4.78,4.79h-1.92a4.79,4.79,0,0,0-3.38,8.17l1.35,1.35a4.79,4.79,0,0,1,0,6.77l-12.55,12.55a4.79,4.79,0,0,1-6.77,0L769.62,215a4.78,4.78,0,0,0-8.17,3.38v1.91a4.78,4.78,0,0,1-4.78,4.79H738.91A4.78,4.78,0,0,1,734.13,220.32Zm35.52-46.44a22.2,22.2,0,1,0-22.2,22.2A22.2,22.2,0,0,0,769.65,173.88Z" style="fill:#3cb371"/><path d="M894,273l-2.33-.39a5.93,5.93,0,0,0-5.84,9.28l1.37,1.93a5.93,5.93,0,0,1-1.4,8.27l-18,12.74a5.94,5.94,0,0,1-8.27-1.41l-1.38-1.93a5.93,5.93,0,0,0-10.68,2.44l-.4,2.33a5.93,5.93,0,0,1-6.84,4.86l-21.7-3.69a5.93,5.93,0,0,1-4.86-6.84l.4-2.34a5.93,5.93,0,0,0-9.28-5.83l-1.93,1.37a5.94,5.94,0,0,1-8.28-1.4l-12.73-18a5.93,5.93,0,0,1,1.4-8.27l1.94-1.37a5.94,5.94,0,0,0-2.44-10.69l-2.34-.39a5.94,5.94,0,0,1-4.85-6.85l3.68-21.69a5.94,5.94,0,0,1,6.85-4.86l2.33.4a5.94,5.94,0,0,0,5.84-9.28L793,209.48a5.94,5.94,0,0,1,1.41-8.27l17.95-12.73a5.93,5.93,0,0,1,8.27,1.4l1.37,1.93a5.93,5.93,0,0,0,10.69-2.43L833,187a5.94,5.94,0,0,1,6.84-4.86l21.7,3.69a5.94,5.94,0,0,1,4.86,6.84l-.4,2.34a5.93,5.93,0,0,0,9.28,5.83l1.93-1.37a5.94,5.94,0,0,1,8.27,1.41l12.74,18a5.92,5.92,0,0,1-1.41,8.27l-1.93,1.37a5.94,5.94,0,0,0,2.44,10.69l2.34.4a5.93,5.93,0,0,1,4.85,6.84l-3.69,21.7A5.92,5.92,0,0,1,894,273Zm-49.39-53.06a27.52,27.52,0,1,0,22.52,31.75A27.53,27.53,0,0,0,844.63,219.93Z" style="fill:#fabb04"/><g id="text"><path d="M49.11,71.45v-12H81a26.59,26.59,0,0,1,10.58,2.12A27.38,27.38,0,0,1,106.1,76.11a27.46,27.46,0,0,1,0,21.16A27.38,27.38,0,0,1,91.57,111.8,26.59,26.59,0,0,1,81,113.92a28.42,28.42,0,0,1-8.32-1.2,30.5,30.5,0,0,1-7.34-3.32v36.54h-12V71.45Zm16.22,35.13,7-7a16.78,16.78,0,0,0,8.61,2.4,14.72,14.72,0,0,0,10.79-4.52A16.16,16.16,0,0,0,95,92.54a14.44,14.44,0,0,0,1.2-5.85,14.88,14.88,0,0,0-1.2-6,15.38,15.38,0,0,0-8-8,14.88,14.88,0,0,0-6-1.2H65.33Z"/><path d="M139,87.11a28.39,28.39,0,0,1,11.43,2.33,30.76,30.76,0,0,1,9.38,6.28,29.2,29.2,0,0,1,6.35,9.31,29.18,29.18,0,0,1,0,22.85,29.92,29.92,0,0,1-15.73,15.74,29.29,29.29,0,0,1-22.85,0,29.25,29.25,0,0,1-9.31-6.35,30.51,30.51,0,0,1-6.28-9.39A29.18,29.18,0,0,1,112,105a29.43,29.43,0,0,1,15.59-15.59A28.38,28.38,0,0,1,139,87.11Zm0,46.7a17.51,17.51,0,0,0,6.85-1.34,16.52,16.52,0,0,0,5.5-3.74,19.12,19.12,0,0,0,3.74-5.57,16.34,16.34,0,0,0,1.41-6.7,16.16,16.16,0,0,0-1.41-6.77,19.37,19.37,0,0,0-3.74-5.51,16.67,16.67,0,0,0-5.5-3.74A17.51,17.51,0,0,0,139,99.1a17.13,17.13,0,0,0-6.7,1.34,17.55,17.55,0,0,0-9.31,9.25,16.94,16.94,0,0,0-1.34,6.77,17.13,17.13,0,0,0,1.34,6.7,17.39,17.39,0,0,0,9.31,9.31A17.13,17.13,0,0,0,139,133.81Z"/><path d="M181.58,87.11l16.5,37.25,5.22-13.26-5.36-12h-6.35v-12h14.25l3.67,8.33,3.25-8.33h13l-9.46,23.7,6.07,13.55,14.53-37.25h13l-23.14,58.83h-8l-8.46-19.33-7.62,19.33h-8L173.82,99.1h-6.35v-12Z"/><path d="M279.2,87.11a28.39,28.39,0,0,1,11.43,2.33A30.64,30.64,0,0,1,300,95.72a29.2,29.2,0,0,1,6.35,9.31,28.39,28.39,0,0,1,2.33,11.43v6.06H263a17.24,17.24,0,0,0,6.21,8.12,16.63,16.63,0,0,0,10,3.17V134a17,17,0,0,0,8.75-2.4l8.61,8.75a29.8,29.8,0,0,1-8,4.16,28.8,28.8,0,0,1-9.32,1.48,28.37,28.37,0,0,1-11.42-2.32,29.25,29.25,0,0,1-9.31-6.35,30.51,30.51,0,0,1-6.28-9.39,29.18,29.18,0,0,1,0-22.85,29.43,29.43,0,0,1,15.59-15.59A28.38,28.38,0,0,1,279.2,87.11ZM263,110.53h32.59a17.09,17.09,0,0,0-6.28-8.25A16.89,16.89,0,0,0,279.2,99.1a16.57,16.57,0,0,0-10,3.18A17.19,17.19,0,0,0,263,110.53Z"/><path d="M314.33,87.11h16.23v4a24.53,24.53,0,0,1,13.68-4,29,29,0,0,1,9.31,1.48,29.54,29.54,0,0,1,8,4.17l-8.6,8.6a17.91,17.91,0,0,0-8.75-2.26,13.36,13.36,0,0,0-5.29,1.06,14.53,14.53,0,0,0-4.37,2.89,13.07,13.07,0,0,0-3,4.38,13.88,13.88,0,0,0-1.05,5.36v33.15h-12V99.1h-4.23Z"/><path d="M388.68,87.11a28.46,28.46,0,0,1,11.43,2.33,30.76,30.76,0,0,1,9.38,6.28,29.2,29.2,0,0,1,6.35,9.31,28.39,28.39,0,0,1,2.33,11.43v6.06H372.46a17.28,17.28,0,0,0,6.2,8.12,16.68,16.68,0,0,0,10,3.17V134a17,17,0,0,0,8.75-2.4l8.6,8.75a29.51,29.51,0,0,1-8,4.16,28.78,28.78,0,0,1-9.31,1.48,28.45,28.45,0,0,1-11.43-2.32,29.37,29.37,0,0,1-9.31-6.35,30.86,30.86,0,0,1-6.28-9.39,29.29,29.29,0,0,1,0-22.85,29.43,29.43,0,0,1,15.59-15.59A28.46,28.46,0,0,1,388.68,87.11Zm-16.22,23.42h32.59a17.15,17.15,0,0,0-6.28-8.25,16.93,16.93,0,0,0-10.09-3.18,16.62,16.62,0,0,0-10,3.18A17.24,17.24,0,0,0,372.46,110.53Z"/><path d="M453.15,87.11a28.55,28.55,0,0,1,17.5,5.79V71.45h-4.24v-12h16.23v86.48h-12V116.6a16.62,16.62,0,0,0-1.42-6.84,17.59,17.59,0,0,0-9.24-9.24,16.62,16.62,0,0,0-6.84-1.42,16.35,16.35,0,0,0-6.7,1.42,19,19,0,0,0-5.57,3.73,16.56,16.56,0,0,0-3.74,5.51,17.24,17.24,0,0,0-1.34,6.84,17,17,0,0,0,1.34,6.7,17.39,17.39,0,0,0,9.31,9.31,17.26,17.26,0,0,0,15.45-1.06l8.6,8.75a29.51,29.51,0,0,1-8,4.16,28.74,28.74,0,0,1-9.31,1.48,28.45,28.45,0,0,1-11.43-2.32A29.43,29.43,0,0,1,426.13,128a29.32,29.32,0,0,1,0-22.86,30.94,30.94,0,0,1,6.28-9.38,29.2,29.2,0,0,1,9.31-6.35A28.46,28.46,0,0,1,453.15,87.11Z"/><path d="M526.37,59.46h16.22v33.3a29.83,29.83,0,0,1,8-4.17,29.06,29.06,0,0,1,9.31-1.48,28.39,28.39,0,0,1,11.43,2.33,29.94,29.94,0,0,1,15.73,15.73,29.2,29.2,0,0,1,0,22.86,29.31,29.31,0,0,1-6.35,9.31,30.82,30.82,0,0,1-9.38,6.28,28.38,28.38,0,0,1-11.43,2.32,27.88,27.88,0,0,1-15.09-4.23,4.14,4.14,0,0,1-1.2-.71,5.26,5.26,0,0,0-1.06-.7v5.64h-12V71.45h-4.23Zm16.22,57.14a16.34,16.34,0,0,0,1.41,6.7,17.77,17.77,0,0,0,9.24,9.24,16.34,16.34,0,0,0,6.7,1.41,17.33,17.33,0,0,0,6.85-1.34,16.52,16.52,0,0,0,5.5-3.74A19,19,0,0,0,576,123.3a16.34,16.34,0,0,0,1.41-6.7,16.62,16.62,0,0,0-1.41-6.84,17.68,17.68,0,0,0-9.24-9.24,16.7,16.7,0,0,0-6.85-1.42,17.08,17.08,0,0,0-8.6,2.26l-8.75-8.6Z"/><path d="M605,87.11l16.5,37.25,14.68-37.25h13L644.73,98l-29.62,75.61h-13L615.39,140,597.19,99.1h-6.35v-12Z"/></g></g></svg>